<?xml version="1.0" encoding="UTF-8" standalone="no"?>
<!DOCTYPE svg PUBLIC "-//W3C//DTD SVG 1.1//EN"
 "http://www.w3.org/Graphics/SVG/1.1/DTD/svg11.dtd">
<!-- Generated by graphviz version 2.38.0 (20140413.2041)
 -->
<!-- Title: controllers_diagram Pages: 1 -->
<svg width="754pt" height="723pt"
 viewBox="0.00 0.00 753.79 723.00" xmlns="http://www.w3.org/2000/svg" xmlns:xlink="http://www.w3.org/1999/xlink">
<g id="graph0" class="graph" transform="scale(1 1) rotate(0) translate(309.879 413.5)">
<title>controllers_diagram</title>
<polygon fill="white" stroke="none" points="-309.879,309.5 -309.879,-413.5 443.915,-413.5 443.915,309.5 -309.879,309.5"/>
<!-- _diagram_info -->
<g id="node1" class="node"><title>_diagram_info</title>
<text text-anchor="start" x="134.312" y="174.9" font-family="Times,serif" font-size="13.00">Controllers diagram</text>
<text text-anchor="start" x="134.312" y="187.9" font-family="Times,serif" font-size="13.00">Date: Apr 25 2015 &#45; 09:41</text>
<text text-anchor="start" x="134.312" y="200.9" font-family="Times,serif" font-size="13.00">Migration version: 20150409004346</text>
<text text-anchor="start" x="134.312" y="213.9" font-family="Times,serif" font-size="13.00">Generated by RailRoady 1.3.0</text>
<text text-anchor="start" x="134.312" y="226.9" font-family="Times,serif" font-size="13.00">http://railroady.prestonlee.com</text>
</g>
<!-- Api::V1::ApiController -->
<g id="node2" class="node"><title>Api::V1::ApiController</title>
<path fill="none" stroke="black" d="M138.307,-127C138.307,-127 289.693,-127 289.693,-127 295.693,-127 301.693,-133 301.693,-139 301.693,-139 301.693,-233 301.693,-233 301.693,-239 295.693,-245 289.693,-245 289.693,-245 138.307,-245 138.307,-245 132.307,-245 126.307,-239 126.307,-233 126.307,-233 126.307,-139 126.307,-139 126.307,-133 132.307,-127 138.307,-127"/>
<text text-anchor="middle" x="214" y="-229.8" font-family="Times,serif" font-size="14.00">Api::V1::ApiController</text>
<polyline fill="none" stroke="black" points="126.307,-223 301.693,-223 "/>
<text text-anchor="start" x="134.307" y="-207.8" font-family="Times,serif" font-size="14.00">index</text>
<polyline fill="none" stroke="black" points="126.307,-201 301.693,-201 "/>
<polyline fill="none" stroke="black" points="126.307,-177 301.693,-177 "/>
<text text-anchor="start" x="134.307" y="-161.8" font-family="Times,serif" font-size="14.00">_layout</text>
<text text-anchor="start" x="134.307" y="-147.8" font-family="Times,serif" font-size="14.00">key_matches?</text>
<text text-anchor="start" x="134.307" y="-133.8" font-family="Times,serif" font-size="14.00">verify_access_with_api_key</text>
</g>
<!-- ApplicationController -->
<g id="node3" class="node"><title>ApplicationController</title>
<path fill="none" stroke="black" d="M-41.8208,-235C-41.8208,-235 73.8208,-235 73.8208,-235 79.8208,-235 85.8208,-241 85.8208,-247 85.8208,-247 85.8208,-357 85.8208,-357 85.8208,-363 79.8208,-369 73.8208,-369 73.8208,-369 -41.8208,-369 -41.8208,-369 -47.8208,-369 -53.8208,-363 -53.8208,-357 -53.8208,-357 -53.8208,-247 -53.8208,-247 -53.8208,-241 -47.8208,-235 -41.8208,-235"/>
<text text-anchor="middle" x="16" y="-353.8" font-family="Times,serif" font-size="14.00">ApplicationController</text>
<polyline fill="none" stroke="black" points="-53.8208,-347 85.8208,-347 "/>
<polyline fill="none" stroke="black" points="-53.8208,-323 85.8208,-323 "/>
<polyline fill="none" stroke="black" points="-53.8208,-299 85.8208,-299 "/>
<text text-anchor="start" x="-45.8208" y="-283.8" font-family="Times,serif" font-size="14.00">_layout</text>
<text text-anchor="start" x="-45.8208" y="-269.8" font-family="Times,serif" font-size="14.00">check_login</text>
<text text-anchor="start" x="-45.8208" y="-255.8" font-family="Times,serif" font-size="14.00">current_user</text>
<text text-anchor="start" x="-45.8208" y="-241.8" font-family="Times,serif" font-size="14.00">logged_in?</text>
</g>
<!-- ErrorsController -->
<g id="node4" class="node"><title>ErrorsController</title>
<path fill="none" stroke="black" d="M335.734,125C335.734,125 420.266,125 420.266,125 426.266,125 432.266,119 432.266,113 432.266,113 432.266,47 432.266,47 432.266,41 426.266,35 420.266,35 420.266,35 335.734,35 335.734,35 329.734,35 323.734,41 323.734,47 323.734,47 323.734,113 323.734,113 323.734,119 329.734,125 335.734,125"/>
<text text-anchor="middle" x="378" y="50.2" font-family="Times,serif" font-size="14.00">ErrorsController</text>
<polyline fill="none" stroke="black" points="323.734,57 432.266,57 "/>
<text text-anchor="start" x="331.734" y="72.2" font-family="Times,serif" font-size="14.00">show</text>
<polyline fill="none" stroke="black" points="323.734,79 432.266,79 "/>
<polyline fill="none" stroke="black" points="323.734,103 432.266,103 "/>
<text text-anchor="start" x="331.734" y="118.2" font-family="Times,serif" font-size="14.00">_layout</text>
</g>
<!-- FiltersController -->
<g id="node5" class="node"><title>FiltersController</title>
<path fill="none" stroke="black" d="M-185.662,-235C-185.662,-235 -100.338,-235 -100.338,-235 -94.3379,-235 -88.3379,-241 -88.3379,-247 -88.3379,-247 -88.3379,-397 -88.3379,-397 -88.3379,-403 -94.3379,-409 -100.338,-409 -100.338,-409 -185.662,-409 -185.662,-409 -191.662,-409 -197.662,-403 -197.662,-397 -197.662,-397 -197.662,-247 -197.662,-247 -197.662,-241 -191.662,-235 -185.662,-235"/>
<text text-anchor="middle" x="-143" y="-393.8" font-family="Times,serif" font-size="14.00">FiltersController</text>
<polyline fill="none" stroke="black" points="-197.662,-387 -88.3379,-387 "/>
<text text-anchor="start" x="-189.662" y="-371.8" font-family="Times,serif" font-size="14.00">create</text>
<text text-anchor="start" x="-189.662" y="-357.8" font-family="Times,serif" font-size="14.00">destroy</text>
<text text-anchor="start" x="-189.662" y="-343.8" font-family="Times,serif" font-size="14.00">index</text>
<text text-anchor="start" x="-189.662" y="-329.8" font-family="Times,serif" font-size="14.00">new</text>
<text text-anchor="start" x="-189.662" y="-315.8" font-family="Times,serif" font-size="14.00">show</text>
<polyline fill="none" stroke="black" points="-197.662,-309 -88.3379,-309 "/>
<polyline fill="none" stroke="black" points="-197.662,-285 -88.3379,-285 "/>
<text text-anchor="start" x="-189.662" y="-269.8" font-family="Times,serif" font-size="14.00">_layout</text>
<text text-anchor="start" x="-189.662" y="-255.8" font-family="Times,serif" font-size="14.00">filter_params</text>
<text text-anchor="start" x="-189.662" y="-241.8" font-family="Times,serif" font-size="14.00">set_filter</text>
</g>
<!-- HomeController -->
<g id="node6" class="node"><title>HomeController</title>
<path fill="none" stroke="black" d="M-293.879,305C-293.879,305 -210.121,305 -210.121,305 -204.121,305 -198.121,299 -198.121,293 -198.121,293 -198.121,227 -198.121,227 -198.121,221 -204.121,215 -210.121,215 -210.121,215 -293.879,215 -293.879,215 -299.879,215 -305.879,221 -305.879,227 -305.879,227 -305.879,293 -305.879,293 -305.879,299 -299.879,305 -293.879,305"/>
<text text-anchor="middle" x="-252" y="230.2" font-family="Times,serif" font-size="14.00">HomeController</text>
<polyline fill="none" stroke="black" points="-305.879,237 -198.121,237 "/>
<text text-anchor="start" x="-297.879" y="252.2" font-family="Times,serif" font-size="14.00">index</text>
<polyline fill="none" stroke="black" points="-305.879,259 -198.121,259 "/>
<polyline fill="none" stroke="black" points="-305.879,283 -198.121,283 "/>
<text text-anchor="start" x="-297.879" y="298.2" font-family="Times,serif" font-size="14.00">_layout</text>
</g>
<!-- OrganizationsController -->
<g id="node7" class="node"><title>OrganizationsController</title>
<path fill="none" stroke="black" d="M300.085,-289C300.085,-289 427.915,-289 427.915,-289 433.915,-289 439.915,-295 439.915,-301 439.915,-301 439.915,-381 439.915,-381 439.915,-387 433.915,-393 427.915,-393 427.915,-393 300.085,-393 300.085,-393 294.085,-393 288.085,-387 288.085,-381 288.085,-381 288.085,-301 288.085,-301 288.085,-295 294.085,-289 300.085,-289"/>
<text text-anchor="middle" x="364" y="-377.8" font-family="Times,serif" font-size="14.00">OrganizationsController</text>
<polyline fill="none" stroke="black" points="288.085,-371 439.915,-371 "/>
<text text-anchor="start" x="296.085" y="-355.8" font-family="Times,serif" font-size="14.00">index</text>
<text text-anchor="start" x="296.085" y="-341.8" font-family="Times,serif" font-size="14.00">show</text>
<polyline fill="none" stroke="black" points="288.085,-335 439.915,-335 "/>
<polyline fill="none" stroke="black" points="288.085,-311 439.915,-311 "/>
<text text-anchor="start" x="296.085" y="-295.8" font-family="Times,serif" font-size="14.00">_layout</text>
</g>
<!-- PagesController -->
<g id="node8" class="node"><title>PagesController</title>
<path fill="none" stroke="black" d="M-240.104,179C-240.104,179 -157.896,179 -157.896,179 -151.896,179 -145.896,173 -145.896,167 -145.896,167 -145.896,45 -145.896,45 -145.896,39 -151.896,33 -157.896,33 -157.896,33 -240.104,33 -240.104,33 -246.104,33 -252.104,39 -252.104,45 -252.104,45 -252.104,167 -252.104,167 -252.104,173 -246.104,179 -240.104,179"/>
<text text-anchor="middle" x="-199" y="48.2" font-family="Times,serif" font-size="14.00">PagesController</text>
<polyline fill="none" stroke="black" points="-252.104,55 -145.896,55 "/>
<text text-anchor="start" x="-244.104" y="70.2" font-family="Times,serif" font-size="14.00">edit</text>
<text text-anchor="start" x="-244.104" y="84.2" font-family="Times,serif" font-size="14.00">show</text>
<text text-anchor="start" x="-244.104" y="98.2" font-family="Times,serif" font-size="14.00">update</text>
<polyline fill="none" stroke="black" points="-252.104,105 -145.896,105 "/>
<polyline fill="none" stroke="black" points="-252.104,129 -145.896,129 "/>
<text text-anchor="start" x="-244.104" y="144.2" font-family="Times,serif" font-size="14.00">_layout</text>
<text text-anchor="start" x="-244.104" y="158.2" font-family="Times,serif" font-size="14.00">page_params</text>
<text text-anchor="start" x="-244.104" y="172.2" font-family="Times,serif" font-size="14.00">set_page</text>
</g>
<!-- QuestionsController -->
<g id="node9" class="node"><title>QuestionsController</title>
<path fill="none" stroke="black" d="M138.371,125C138.371,125 271.629,125 271.629,125 277.629,125 283.629,119 283.629,113 283.629,113 283.629,-79 283.629,-79 283.629,-85 277.629,-91 271.629,-91 271.629,-91 138.371,-91 138.371,-91 132.371,-91 126.371,-85 126.371,-79 126.371,-79 126.371,113 126.371,113 126.371,119 132.371,125 138.371,125"/>
<text text-anchor="middle" x="205" y="-75.8" font-family="Times,serif" font-size="14.00">QuestionsController</text>
<polyline fill="none" stroke="black" points="126.371,-69 283.629,-69 "/>
<text text-anchor="start" x="134.371" y="-53.8" font-family="Times,serif" font-size="14.00">create</text>
<text text-anchor="start" x="134.371" y="-39.8" font-family="Times,serif" font-size="14.00">destroy</text>
<text text-anchor="start" x="134.371" y="-25.8" font-family="Times,serif" font-size="14.00">edit</text>
<text text-anchor="start" x="134.371" y="-11.8" font-family="Times,serif" font-size="14.00">index</text>
<text text-anchor="start" x="134.371" y="2.2" font-family="Times,serif" font-size="14.00">new</text>
<text text-anchor="start" x="134.371" y="16.2" font-family="Times,serif" font-size="14.00">repopulate_columns</text>
<text text-anchor="start" x="134.371" y="30.2" font-family="Times,serif" font-size="14.00">repopulate_organizations</text>
<text text-anchor="start" x="134.371" y="44.2" font-family="Times,serif" font-size="14.00">update</text>
<polyline fill="none" stroke="black" points="126.371,51 283.629,51 "/>
<polyline fill="none" stroke="black" points="126.371,75 283.629,75 "/>
<text text-anchor="start" x="134.371" y="90.2" font-family="Times,serif" font-size="14.00">_layout</text>
<text text-anchor="start" x="134.371" y="104.2" font-family="Times,serif" font-size="14.00">question_params</text>
<text text-anchor="start" x="134.371" y="118.2" font-family="Times,serif" font-size="14.00">set_question</text>
</g>
<!-- SessionsController -->
<g id="node10" class="node"><title>SessionsController</title>
<path fill="none" stroke="black" d="M138.11,-289C138.11,-289 235.89,-289 235.89,-289 241.89,-289 247.89,-295 247.89,-301 247.89,-301 247.89,-395 247.89,-395 247.89,-401 241.89,-407 235.89,-407 235.89,-407 138.11,-407 138.11,-407 132.11,-407 126.11,-401 126.11,-395 126.11,-395 126.11,-301 126.11,-301 126.11,-295 132.11,-289 138.11,-289"/>
<text text-anchor="middle" x="187" y="-391.8" font-family="Times,serif" font-size="14.00">SessionsController</text>
<polyline fill="none" stroke="black" points="126.11,-385 247.89,-385 "/>
<text text-anchor="start" x="134.11" y="-369.8" font-family="Times,serif" font-size="14.00">login</text>
<text text-anchor="start" x="134.11" y="-355.8" font-family="Times,serif" font-size="14.00">logout</text>
<polyline fill="none" stroke="black" points="126.11,-349 247.89,-349 "/>
<polyline fill="none" stroke="black" points="126.11,-325 247.89,-325 "/>
<text text-anchor="start" x="134.11" y="-309.8" font-family="Times,serif" font-size="14.00">_layout</text>
<text text-anchor="start" x="134.11" y="-295.8" font-family="Times,serif" font-size="14.00">new_user</text>
</g>
<!-- UserKeysController -->
<g id="node11" class="node"><title>UserKeysController</title>
<path fill="none" stroke="black" d="M-96.1382,233C-96.1382,233 80.1382,233 80.1382,233 86.1382,233 92.1382,227 92.1382,221 92.1382,221 92.1382,-195 92.1382,-195 92.1382,-201 86.1382,-207 80.1382,-207 80.1382,-207 -96.1382,-207 -96.1382,-207 -102.138,-207 -108.138,-201 -108.138,-195 -108.138,-195 -108.138,221 -108.138,221 -108.138,227 -102.138,233 -96.1382,233"/>
<text text-anchor="middle" x="-8" y="-191.8" font-family="Times,serif" font-size="14.00">UserKeysController</text>
<polyline fill="none" stroke="black" points="-108.138,-185 92.1382,-185 "/>
<text text-anchor="start" x="-100.138" y="-169.8" font-family="Times,serif" font-size="14.00">add_comment</text>
<text text-anchor="start" x="-100.138" y="-155.8" font-family="Times,serif" font-size="14.00">approve_key</text>
<text text-anchor="start" x="-100.138" y="-141.8" font-family="Times,serif" font-size="14.00">create</text>
<text text-anchor="start" x="-100.138" y="-127.8" font-family="Times,serif" font-size="14.00">delete_comment</text>
<text text-anchor="start" x="-100.138" y="-113.8" font-family="Times,serif" font-size="14.00">destroy</text>
<text text-anchor="start" x="-100.138" y="-99.8" font-family="Times,serif" font-size="14.00">edit</text>
<text text-anchor="start" x="-100.138" y="-85.8" font-family="Times,serif" font-size="14.00">index</text>
<text text-anchor="start" x="-100.138" y="-71.8" font-family="Times,serif" font-size="14.00">new</text>
<text text-anchor="start" x="-100.138" y="-57.8" font-family="Times,serif" font-size="14.00">own_user_keys</text>
<text text-anchor="start" x="-100.138" y="-43.8" font-family="Times,serif" font-size="14.00">search</text>
<text text-anchor="start" x="-100.138" y="-29.8" font-family="Times,serif" font-size="14.00">set_as_confirmed</text>
<text text-anchor="start" x="-100.138" y="-15.8" font-family="Times,serif" font-size="14.00">set_as_filtered</text>
<text text-anchor="start" x="-100.138" y="-1.8" font-family="Times,serif" font-size="14.00">set_as_reset</text>
<text text-anchor="start" x="-100.138" y="12.2" font-family="Times,serif" font-size="14.00">set_as_submitted</text>
<text text-anchor="start" x="-100.138" y="26.2" font-family="Times,serif" font-size="14.00">show</text>
<text text-anchor="start" x="-100.138" y="40.2" font-family="Times,serif" font-size="14.00">undo_approve_key</text>
<text text-anchor="start" x="-100.138" y="54.2" font-family="Times,serif" font-size="14.00">update</text>
<polyline fill="none" stroke="black" points="-108.138,61 92.1382,61 "/>
<polyline fill="none" stroke="black" points="-108.138,85 92.1382,85 "/>
<text text-anchor="start" x="-100.138" y="100.2" font-family="Times,serif" font-size="14.00">_layout</text>
<text text-anchor="start" x="-100.138" y="114.2" font-family="Times,serif" font-size="14.00">admin_update_user_key_params</text>
<text text-anchor="start" x="-100.138" y="128.2" font-family="Times,serif" font-size="14.00">build_answers</text>
<text text-anchor="start" x="-100.138" y="142.2" font-family="Times,serif" font-size="14.00">comment_user_key_params</text>
<text text-anchor="start" x="-100.138" y="156.2" font-family="Times,serif" font-size="14.00">create_user_key_params</text>
<text text-anchor="start" x="-100.138" y="170.2" font-family="Times,serif" font-size="14.00">get_comments</text>
<text text-anchor="start" x="-100.138" y="184.2" font-family="Times,serif" font-size="14.00">get_questions</text>
<text text-anchor="start" x="-100.138" y="198.2" font-family="Times,serif" font-size="14.00">owner_user_key_params</text>
<text text-anchor="start" x="-100.138" y="212.2" font-family="Times,serif" font-size="14.00">sanitize_question_ids</text>
<text text-anchor="start" x="-100.138" y="226.2" font-family="Times,serif" font-size="14.00">set_user_key</text>
</g>
<!-- UsersController -->
<g id="node12" class="node"><title>UsersController</title>
<path fill="none" stroke="black" d="M-239.714,-1C-239.714,-1 -158.286,-1 -158.286,-1 -152.286,-1 -146.286,-7 -146.286,-13 -146.286,-13 -146.286,-163 -146.286,-163 -146.286,-169 -152.286,-175 -158.286,-175 -158.286,-175 -239.714,-175 -239.714,-175 -245.714,-175 -251.714,-169 -251.714,-163 -251.714,-163 -251.714,-13 -251.714,-13 -251.714,-7 -245.714,-1 -239.714,-1"/>
<text text-anchor="middle" x="-199" y="-159.8" font-family="Times,serif" font-size="14.00">UsersController</text>
<polyline fill="none" stroke="black" points="-251.714,-153 -146.286,-153 "/>
<text text-anchor="start" x="-243.714" y="-137.8" font-family="Times,serif" font-size="14.00">edit</text>
<text text-anchor="start" x="-243.714" y="-123.8" font-family="Times,serif" font-size="14.00">index</text>
<text text-anchor="start" x="-243.714" y="-109.8" font-family="Times,serif" font-size="14.00">search</text>
<text text-anchor="start" x="-243.714" y="-95.8" font-family="Times,serif" font-size="14.00">show</text>
<text text-anchor="start" x="-243.714" y="-81.8" font-family="Times,serif" font-size="14.00">update</text>
<polyline fill="none" stroke="black" points="-251.714,-75 -146.286,-75 "/>
<polyline fill="none" stroke="black" points="-251.714,-51 -146.286,-51 "/>
<text text-anchor="start" x="-243.714" y="-35.8" font-family="Times,serif" font-size="14.00">_layout</text>
<text text-anchor="start" x="-243.714" y="-21.8" font-family="Times,serif" font-size="14.00">set_user</text>
<text text-anchor="start" x="-243.714" y="-7.8" font-family="Times,serif" font-size="14.00">user_params</text>
</g>
</g>
</svg>
