<?xml version="1.0" encoding="UTF-8" standalone="no"?>
<!DOCTYPE svg PUBLIC "-//W3C//DTD SVG 1.1//EN"
 "http://www.w3.org/Graphics/SVG/1.1/DTD/svg11.dtd">
<!-- Generated by graphviz version 2.36.0 (20140111.2315)
 -->
<!-- Title: controllers_diagram Pages: 1 -->
<svg width="792pt" height="908pt"
 viewBox="0.00 0.00 792.00 908.26" xmlns="http://www.w3.org/2000/svg" xmlns:xlink="http://www.w3.org/1999/xlink">
<g id="graph0" class="graph" transform="scale(1 1) rotate(0) translate(4 904.26)">
<title>controllers_diagram</title>
<polygon fill="white" stroke="none" points="-4,4 -4,-904.26 788,-904.26 788,4 -4,4"/>
<!-- _diagram_info -->
<g id="node1" class="node"><title>_diagram_info</title>
<text text-anchor="start" x="578" y="-234.6" font-family="Times,serif" font-size="13.00">Controllers diagram</text>
<text text-anchor="start" x="578" y="-220.6" font-family="Times,serif" font-size="13.00">Date: Mar 23 2015 &#45; 12:05</text>
<text text-anchor="start" x="578" y="-206.6" font-family="Times,serif" font-size="13.00">Migration version: 20150304225636</text>
<text text-anchor="start" x="578" y="-192.6" font-family="Times,serif" font-size="13.00">Generated by RailRoady 1.1.1</text>
<text text-anchor="start" x="578" y="-178.6" font-family="Times,serif" font-size="13.00">http://railroady.prestonlee.com</text>
</g>
<!-- Api::V1::UsersController -->
<g id="node2" class="node"><title>Api::V1::UsersController</title>
<path fill="none" stroke="black" d="M12,-433.663C12,-433.663 158,-433.663 158,-433.663 164,-433.663 170,-439.663 170,-445.663 170,-445.663 170,-544.663 170,-544.663 170,-550.663 164,-556.663 158,-556.663 158,-556.663 12,-556.663 12,-556.663 6,-556.663 0,-550.663 0,-544.663 0,-544.663 0,-445.663 0,-445.663 0,-439.663 6,-433.663 12,-433.663"/>
<text text-anchor="middle" x="85" y="-541.463" font-family="Times,serif" font-size="14.00">Api::V1::UsersController</text>
<polyline fill="none" stroke="black" points="0,-533.663 170,-533.663 "/>
<text text-anchor="start" x="8" y="-518.463" font-family="Times,serif" font-size="14.00">index</text>
<polyline fill="none" stroke="black" points="0,-510.663 170,-510.663 "/>
<polyline fill="none" stroke="black" points="0,-486.663 170,-486.663 "/>
<text text-anchor="start" x="8" y="-471.463" font-family="Times,serif" font-size="14.00">_layout</text>
<text text-anchor="start" x="8" y="-456.463" font-family="Times,serif" font-size="14.00">key_exists?</text>
<text text-anchor="start" x="8" y="-441.463" font-family="Times,serif" font-size="14.00">verify_access_with_api_key</text>
</g>
<!-- ApplicationController -->
<g id="node3" class="node"><title>ApplicationController</title>
<path fill="none" stroke="black" d="M234.44,-434.342C234.44,-434.342 346.44,-434.342 346.44,-434.342 352.44,-434.342 358.44,-440.342 358.44,-446.342 358.44,-446.342 358.44,-561.342 358.44,-561.342 358.44,-567.342 352.44,-573.342 346.44,-573.342 346.44,-573.342 234.44,-573.342 234.44,-573.342 228.44,-573.342 222.44,-567.342 222.44,-561.342 222.44,-561.342 222.44,-446.342 222.44,-446.342 222.44,-440.342 228.44,-434.342 234.44,-434.342"/>
<text text-anchor="middle" x="290.44" y="-558.142" font-family="Times,serif" font-size="14.00">ApplicationController</text>
<polyline fill="none" stroke="black" points="222.44,-550.342 358.44,-550.342 "/>
<polyline fill="none" stroke="black" points="222.44,-526.342 358.44,-526.342 "/>
<polyline fill="none" stroke="black" points="222.44,-502.342 358.44,-502.342 "/>
<text text-anchor="start" x="230.44" y="-487.142" font-family="Times,serif" font-size="14.00">_layout</text>
<text text-anchor="start" x="230.44" y="-472.142" font-family="Times,serif" font-size="14.00">check_login</text>
<text text-anchor="start" x="230.44" y="-457.142" font-family="Times,serif" font-size="14.00">current_user</text>
<text text-anchor="start" x="230.44" y="-442.142" font-family="Times,serif" font-size="14.00">logged_in?</text>
</g>
<!-- ApplicationController&#45;&gt;Api::V1::UsersController -->
<g id="edge1" class="edge"><title>ApplicationController&#45;&gt;Api::V1::UsersController</title>
<path fill="none" stroke="black" d="M222.317,-500.964C205.614,-500.259 187.53,-499.495 170.139,-498.76"/>
</g>
<!-- FiltersController -->
<g id="node4" class="node"><title>FiltersController</title>
<path fill="none" stroke="black" d="M403.009,-104.731C403.009,-104.731 486.009,-104.731 486.009,-104.731 492.009,-104.731 498.009,-110.731 498.009,-116.731 498.009,-116.731 498.009,-305.731 498.009,-305.731 498.009,-311.731 492.009,-317.731 486.009,-317.731 486.009,-317.731 403.009,-317.731 403.009,-317.731 397.009,-317.731 391.009,-311.731 391.009,-305.731 391.009,-305.731 391.009,-116.731 391.009,-116.731 391.009,-110.731 397.009,-104.731 403.009,-104.731"/>
<text text-anchor="middle" x="444.509" y="-302.531" font-family="Times,serif" font-size="14.00">FiltersController</text>
<polyline fill="none" stroke="black" points="391.009,-294.731 498.009,-294.731 "/>
<text text-anchor="start" x="399.009" y="-279.531" font-family="Times,serif" font-size="14.00">create</text>
<text text-anchor="start" x="399.009" y="-264.531" font-family="Times,serif" font-size="14.00">destroy</text>
<text text-anchor="start" x="399.009" y="-249.531" font-family="Times,serif" font-size="14.00">edit</text>
<text text-anchor="start" x="399.009" y="-234.531" font-family="Times,serif" font-size="14.00">index</text>
<text text-anchor="start" x="399.009" y="-219.531" font-family="Times,serif" font-size="14.00">new</text>
<text text-anchor="start" x="399.009" y="-204.531" font-family="Times,serif" font-size="14.00">show</text>
<text text-anchor="start" x="399.009" y="-189.531" font-family="Times,serif" font-size="14.00">update</text>
<polyline fill="none" stroke="black" points="391.009,-181.731 498.009,-181.731 "/>
<polyline fill="none" stroke="black" points="391.009,-157.731 498.009,-157.731 "/>
<text text-anchor="start" x="399.009" y="-142.531" font-family="Times,serif" font-size="14.00">_layout</text>
<text text-anchor="start" x="399.009" y="-127.531" font-family="Times,serif" font-size="14.00">filter_params</text>
<text text-anchor="start" x="399.009" y="-112.531" font-family="Times,serif" font-size="14.00">set_filter</text>
</g>
<!-- ApplicationController&#45;&gt;FiltersController -->
<g id="edge2" class="edge"><title>ApplicationController&#45;&gt;FiltersController</title>
<path fill="none" stroke="black" d="M327.147,-434.126C346.194,-397.952 369.822,-353.077 390.874,-313.095"/>
</g>
<!-- HomeController -->
<g id="node5" class="node"><title>HomeController</title>
<path fill="none" stroke="black" d="M397.998,-753.851C397.998,-753.851 479.998,-753.851 479.998,-753.851 485.998,-753.851 491.998,-759.851 491.998,-765.851 491.998,-765.851 491.998,-834.851 491.998,-834.851 491.998,-840.851 485.998,-846.851 479.998,-846.851 479.998,-846.851 397.998,-846.851 397.998,-846.851 391.998,-846.851 385.998,-840.851 385.998,-834.851 385.998,-834.851 385.998,-765.851 385.998,-765.851 385.998,-759.851 391.998,-753.851 397.998,-753.851"/>
<text text-anchor="middle" x="438.998" y="-831.651" font-family="Times,serif" font-size="14.00">HomeController</text>
<polyline fill="none" stroke="black" points="385.998,-823.851 491.998,-823.851 "/>
<text text-anchor="start" x="393.998" y="-808.651" font-family="Times,serif" font-size="14.00">index</text>
<polyline fill="none" stroke="black" points="385.998,-800.851 491.998,-800.851 "/>
<polyline fill="none" stroke="black" points="385.998,-776.851 491.998,-776.851 "/>
<text text-anchor="start" x="393.998" y="-761.651" font-family="Times,serif" font-size="14.00">_layout</text>
</g>
<!-- ApplicationController&#45;&gt;HomeController -->
<g id="edge3" class="edge"><title>ApplicationController&#45;&gt;HomeController</title>
<path fill="none" stroke="black" d="M325.27,-573.36C353.057,-628.82 391.219,-704.987 415.497,-753.445"/>
</g>
<!-- SessionsController -->
<g id="node6" class="node"><title>SessionsController</title>
<path fill="none" stroke="black" d="M447.214,-451.203C447.214,-451.203 542.214,-451.203 542.214,-451.203 548.214,-451.203 554.214,-457.203 554.214,-463.203 554.214,-463.203 554.214,-562.203 554.214,-562.203 554.214,-568.203 548.214,-574.203 542.214,-574.203 542.214,-574.203 447.214,-574.203 447.214,-574.203 441.214,-574.203 435.214,-568.203 435.214,-562.203 435.214,-562.203 435.214,-463.203 435.214,-463.203 435.214,-457.203 441.214,-451.203 447.214,-451.203"/>
<text text-anchor="middle" x="494.714" y="-559.003" font-family="Times,serif" font-size="14.00">SessionsController</text>
<polyline fill="none" stroke="black" points="435.214,-551.203 554.214,-551.203 "/>
<text text-anchor="start" x="443.214" y="-536.003" font-family="Times,serif" font-size="14.00">create</text>
<text text-anchor="start" x="443.214" y="-521.003" font-family="Times,serif" font-size="14.00">destroy</text>
<text text-anchor="start" x="443.214" y="-506.003" font-family="Times,serif" font-size="14.00">new</text>
<polyline fill="none" stroke="black" points="435.214,-498.203 554.214,-498.203 "/>
<polyline fill="none" stroke="black" points="435.214,-474.203 554.214,-474.203 "/>
<text text-anchor="start" x="443.214" y="-459.003" font-family="Times,serif" font-size="14.00">_layout</text>
</g>
<!-- ApplicationController&#45;&gt;SessionsController -->
<g id="edge4" class="edge"><title>ApplicationController&#45;&gt;SessionsController</title>
<path fill="none" stroke="black" d="M358.46,-506.793C383.297,-507.87 411.176,-509.08 435.214,-510.122"/>
</g>
<!-- UsersController -->
<g id="node7" class="node"><title>UsersController</title>
<path fill="none" stroke="black" d="M94.1743,-686.76C94.1743,-686.76 173.174,-686.76 173.174,-686.76 179.174,-686.76 185.174,-692.76 185.174,-698.76 185.174,-698.76 185.174,-887.76 185.174,-887.76 185.174,-893.76 179.174,-899.76 173.174,-899.76 173.174,-899.76 94.1743,-899.76 94.1743,-899.76 88.1743,-899.76 82.1743,-893.76 82.1743,-887.76 82.1743,-887.76 82.1743,-698.76 82.1743,-698.76 82.1743,-692.76 88.1743,-686.76 94.1743,-686.76"/>
<text text-anchor="middle" x="133.674" y="-884.56" font-family="Times,serif" font-size="14.00">UsersController</text>
<polyline fill="none" stroke="black" points="82.1743,-876.76 185.174,-876.76 "/>
<text text-anchor="start" x="90.1743" y="-861.56" font-family="Times,serif" font-size="14.00">create</text>
<text text-anchor="start" x="90.1743" y="-846.56" font-family="Times,serif" font-size="14.00">destroy</text>
<text text-anchor="start" x="90.1743" y="-831.56" font-family="Times,serif" font-size="14.00">edit</text>
<text text-anchor="start" x="90.1743" y="-816.56" font-family="Times,serif" font-size="14.00">index</text>
<text text-anchor="start" x="90.1743" y="-801.56" font-family="Times,serif" font-size="14.00">new</text>
<text text-anchor="start" x="90.1743" y="-786.56" font-family="Times,serif" font-size="14.00">show</text>
<text text-anchor="start" x="90.1743" y="-771.56" font-family="Times,serif" font-size="14.00">update</text>
<polyline fill="none" stroke="black" points="82.1743,-763.76 185.174,-763.76 "/>
<polyline fill="none" stroke="black" points="82.1743,-739.76 185.174,-739.76 "/>
<text text-anchor="start" x="90.1743" y="-724.56" font-family="Times,serif" font-size="14.00">_layout</text>
<text text-anchor="start" x="90.1743" y="-709.56" font-family="Times,serif" font-size="14.00">set_user</text>
<text text-anchor="start" x="90.1743" y="-694.56" font-family="Times,serif" font-size="14.00">user_params</text>
</g>
<!-- ApplicationController&#45;&gt;UsersController -->
<g id="edge5" class="edge"><title>ApplicationController&#45;&gt;UsersController</title>
<path fill="none" stroke="black" d="M252.691,-573.533C232.487,-610.833 207.305,-657.324 185.314,-697.923"/>
</g>
<!-- UserKeysController -->
<g id="node8" class="node"><title>UserKeysController</title>
<path fill="none" stroke="black" d="M53.0645,-0.5C53.0645,-0.5 225.064,-0.5 225.064,-0.5 231.064,-0.5 237.064,-6.5 237.064,-12.5 237.064,-12.5 237.064,-396.5 237.064,-396.5 237.064,-402.5 231.064,-408.5 225.064,-408.5 225.064,-408.5 53.0645,-408.5 53.0645,-408.5 47.0645,-408.5 41.0645,-402.5 41.0645,-396.5 41.0645,-396.5 41.0645,-12.5 41.0645,-12.5 41.0645,-6.5 47.0645,-0.5 53.0645,-0.5"/>
<text text-anchor="middle" x="139.064" y="-393.3" font-family="Times,serif" font-size="14.00">UserKeysController</text>
<polyline fill="none" stroke="black" points="41.0645,-385.5 237.064,-385.5 "/>
<text text-anchor="start" x="49.0645" y="-370.3" font-family="Times,serif" font-size="14.00">add_comment</text>
<text text-anchor="start" x="49.0645" y="-355.3" font-family="Times,serif" font-size="14.00">approve_key</text>
<text text-anchor="start" x="49.0645" y="-340.3" font-family="Times,serif" font-size="14.00">create</text>
<text text-anchor="start" x="49.0645" y="-325.3" font-family="Times,serif" font-size="14.00">delete_comment</text>
<text text-anchor="start" x="49.0645" y="-310.3" font-family="Times,serif" font-size="14.00">destroy</text>
<text text-anchor="start" x="49.0645" y="-295.3" font-family="Times,serif" font-size="14.00">edit</text>
<text text-anchor="start" x="49.0645" y="-280.3" font-family="Times,serif" font-size="14.00">index</text>
<text text-anchor="start" x="49.0645" y="-265.3" font-family="Times,serif" font-size="14.00">new</text>
<text text-anchor="start" x="49.0645" y="-250.3" font-family="Times,serif" font-size="14.00">own_user_keys</text>
<text text-anchor="start" x="49.0645" y="-235.3" font-family="Times,serif" font-size="14.00">set_as_confirmed</text>
<text text-anchor="start" x="49.0645" y="-220.3" font-family="Times,serif" font-size="14.00">set_as_filtered</text>
<text text-anchor="start" x="49.0645" y="-205.3" font-family="Times,serif" font-size="14.00">set_as_reset</text>
<text text-anchor="start" x="49.0645" y="-190.3" font-family="Times,serif" font-size="14.00">set_as_submitted</text>
<text text-anchor="start" x="49.0645" y="-175.3" font-family="Times,serif" font-size="14.00">show</text>
<text text-anchor="start" x="49.0645" y="-160.3" font-family="Times,serif" font-size="14.00">undo_approve_key</text>
<text text-anchor="start" x="49.0645" y="-145.3" font-family="Times,serif" font-size="14.00">update</text>
<polyline fill="none" stroke="black" points="41.0645,-137.5 237.064,-137.5 "/>
<polyline fill="none" stroke="black" points="41.0645,-113.5 237.064,-113.5 "/>
<text text-anchor="start" x="49.0645" y="-98.3" font-family="Times,serif" font-size="14.00">_layout</text>
<text text-anchor="start" x="49.0645" y="-83.3" font-family="Times,serif" font-size="14.00">admin_update_user_key_params</text>
<text text-anchor="start" x="49.0645" y="-68.3" font-family="Times,serif" font-size="14.00">comment_user_key_params</text>
<text text-anchor="start" x="49.0645" y="-53.3" font-family="Times,serif" font-size="14.00">create_user_key_params</text>
<text text-anchor="start" x="49.0645" y="-38.3" font-family="Times,serif" font-size="14.00">get_comments</text>
<text text-anchor="start" x="49.0645" y="-23.3" font-family="Times,serif" font-size="14.00">set_user_key</text>
<text text-anchor="start" x="49.0645" y="-8.3" font-family="Times,serif" font-size="14.00">update_user_key_params</text>
</g>
<!-- ApplicationController&#45;&gt;UserKeysController -->
<g id="edge6" class="edge"><title>ApplicationController&#45;&gt;UserKeysController</title>
<path fill="none" stroke="black" d="M255.14,-434.038C249.505,-422.894 243.448,-410.916 237.164,-398.49"/>
</g>
</g>
</svg>
