<?xml version="1.0" encoding="UTF-8" standalone="no"?>
<!DOCTYPE svg PUBLIC "-//W3C//DTD SVG 1.1//EN"
 "http://www.w3.org/Graphics/SVG/1.1/DTD/svg11.dtd">
<!-- Generated by graphviz version 2.36.0 (20140111.2315)
 -->
<!-- Title: models_diagram Pages: 1 -->
<svg width="1111pt" height="396pt"
 viewBox="0.00 0.00 1111.00 396.00" xmlns="http://www.w3.org/2000/svg" xmlns:xlink="http://www.w3.org/1999/xlink">
<g id="graph0" class="graph" transform="scale(1 1) rotate(0) translate(4 392)">
<title>models_diagram</title>
<polygon fill="white" stroke="none" points="-4,4 -4,-392 1107,-392 1107,4 -4,4"/>
<!-- _diagram_info -->
<g id="node1" class="node"><title>_diagram_info</title>
<text text-anchor="start" x="8" y="-373.6" font-family="Times,serif" font-size="13.00">Models diagram</text>
<text text-anchor="start" x="8" y="-359.6" font-family="Times,serif" font-size="13.00">Date: Mar 23 2015 &#45; 12:05</text>
<text text-anchor="start" x="8" y="-345.6" font-family="Times,serif" font-size="13.00">Migration version: 20150304225636</text>
<text text-anchor="start" x="8" y="-331.6" font-family="Times,serif" font-size="13.00">Generated by RailRoady 1.1.1</text>
<text text-anchor="start" x="8" y="-317.6" font-family="Times,serif" font-size="13.00">http://railroady.prestonlee.com</text>
</g>
<!-- Ability -->
<g id="node2" class="node"><title>Ability</title>
<polygon fill="none" stroke="black" points="293.25,-272 238.75,-272 238.75,-236 293.25,-236 293.25,-272"/>
<text text-anchor="middle" x="266" y="-250.3" font-family="Times,serif" font-size="14.00">Ability</text>
</g>
<!-- Approval -->
<g id="node3" class="node"><title>Approval</title>
<ellipse fill="none" stroke="black" cx="649" cy="-92" rx="44.2946" ry="18"/>
<text text-anchor="middle" x="649" y="-88.3" font-family="Times,serif" font-size="14.00">Approval</text>
</g>
<!-- Comment -->
<g id="node4" class="node"><title>Comment</title>
<ellipse fill="none" stroke="black" cx="835" cy="-92" rx="46.2191" ry="18"/>
<text text-anchor="middle" x="835" y="-88.3" font-family="Times,serif" font-size="14.00">Comment</text>
</g>
<!-- Filter -->
<g id="node5" class="node"><title>Filter</title>
<ellipse fill="none" stroke="black" cx="741" cy="-92" rx="29.3479" ry="18"/>
<text text-anchor="middle" x="741" y="-88.3" font-family="Times,serif" font-size="14.00">Filter</text>
</g>
<!-- UserKeyFilter -->
<g id="node9" class="node"><title>UserKeyFilter</title>
<ellipse fill="none" stroke="black" cx="741" cy="-18" rx="61.1419" ry="18"/>
<text text-anchor="middle" x="741" y="-14.3" font-family="Times,serif" font-size="14.00">UserKeyFilter</text>
</g>
<!-- Filter&#45;&gt;UserKeyFilter -->
<g id="edge4" class="edge"><title>Filter&#45;&gt;UserKeyFilter</title>
<path fill="none" stroke="#350df2" d="M741,-65.7923C741,-59.5805 741,-52.8963 741,-46.5786"/>
<ellipse fill="none" stroke="#350df2" cx="741" cy="-69.937" rx="4" ry="4"/>
<polygon fill="#350df2" stroke="#350df2" points="741,-46.4407 745.5,-36.4406 741,-41.4407 741,-36.4407 741,-36.4407 741,-36.4407 741,-41.4407 736.5,-36.4407 741,-46.4407 741,-46.4407"/>
</g>
<!-- Organization -->
<g id="node6" class="node"><title>Organization</title>
<ellipse fill="none" stroke="black" cx="747" cy="-254" rx="56.3173" ry="18"/>
<text text-anchor="middle" x="747" y="-250.3" font-family="Times,serif" font-size="14.00">Organization</text>
</g>
<!-- UserKey -->
<g id="node8" class="node"><title>UserKey</title>
<ellipse fill="none" stroke="black" cx="592" cy="-180" rx="42.3701" ry="18"/>
<text text-anchor="middle" x="592" y="-176.3" font-family="Times,serif" font-size="14.00">UserKey</text>
</g>
<!-- Organization&#45;&gt;UserKey -->
<g id="edge7" class="edge"><title>Organization&#45;&gt;UserKey</title>
<path fill="none" stroke="#d3b18e" d="M707.033,-234.435C682.873,-223.212 652.299,-209.01 628.744,-198.068"/>
<polygon fill="#d3b18e" stroke="#d3b18e" points="707.308,-234.562 714.481,-242.856 711.842,-236.669 716.377,-238.775 716.377,-238.775 716.377,-238.775 711.842,-236.669 718.273,-234.694 707.308,-234.562 707.308,-234.562"/>
<polygon fill="#d3b18e" stroke="#d3b18e" points="628.512,-197.961 621.339,-189.667 623.978,-195.854 619.443,-193.748 619.443,-193.748 619.443,-193.748 623.978,-195.854 617.547,-197.829 628.512,-197.961 628.512,-197.961"/>
</g>
<!-- UserKeyOrganization -->
<g id="node10" class="node"><title>UserKeyOrganization</title>
<ellipse fill="none" stroke="black" cx="987" cy="-92" rx="87.613" ry="18"/>
<text text-anchor="middle" x="987" y="-88.3" font-family="Times,serif" font-size="14.00">UserKeyOrganization</text>
</g>
<!-- Organization&#45;&gt;UserKeyOrganization -->
<g id="edge6" class="edge"><title>Organization&#45;&gt;UserKeyOrganization</title>
<path fill="none" stroke="#e8e3ea" d="M777.199,-232.867C822.323,-202.784 907.033,-146.311 953.828,-115.115"/>
<ellipse fill="none" stroke="#e8e3ea" cx="773.777" cy="-235.148" rx="4.00002" ry="4.00002"/>
<polygon fill="#e8e3ea" stroke="#e8e3ea" points="954.062,-114.959 964.879,-113.156 958.222,-112.185 962.383,-109.412 962.383,-109.412 962.383,-109.412 958.222,-112.185 959.886,-105.667 954.062,-114.959 954.062,-114.959"/>
</g>
<!-- User -->
<g id="node7" class="node"><title>User</title>
<ellipse fill="none" stroke="black" cx="363" cy="-92" rx="26.949" ry="18"/>
<text text-anchor="middle" x="363" y="-88.3" font-family="Times,serif" font-size="14.00">User</text>
</g>
<!-- User&#45;&gt;UserKey -->
<g id="edge9" class="edge"><title>User&#45;&gt;UserKey</title>
<path fill="none" stroke="#f15101" d="M355.464,-117.482C354.157,-126.772 354.834,-136.829 361,-144 383.562,-170.238 478.669,-177.049 539.593,-178.673"/>
<ellipse fill="none" stroke="#f15101" cx="356.252" cy="-113.531" rx="4.00001" ry="4.00001"/>
<polygon fill="#f15101" stroke="#f15101" points="539.805,-178.678 549.7,-183.404 544.804,-178.792 549.803,-178.906 549.803,-178.906 549.803,-178.906 544.804,-178.792 549.905,-174.407 539.805,-178.678 539.805,-178.678"/>
</g>
<!-- UserKey&#45;&gt;Approval -->
<g id="edge15" class="edge"><title>UserKey&#45;&gt;Approval</title>
<path fill="none" stroke="#6e8c65" d="M607.505,-155.606C615.209,-143.982 624.525,-129.927 632.376,-118.082"/>
<ellipse fill="none" stroke="#6e8c65" cx="605.2" cy="-159.084" rx="4.00002" ry="4.00002"/>
<polygon fill="#6e8c65" stroke="#6e8c65" points="632.519,-117.866 641.794,-112.017 635.281,-113.698 638.044,-109.531 638.044,-109.531 638.044,-109.531 635.281,-113.698 634.293,-107.045 632.519,-117.866 632.519,-117.866"/>
</g>
<!-- UserKey&#45;&gt;Comment -->
<g id="edge14" class="edge"><title>UserKey&#45;&gt;Comment</title>
<path fill="none" stroke="#93b62c" d="M630.869,-165.244C674.972,-149.636 746.678,-124.258 792.305,-108.11"/>
<ellipse fill="none" stroke="#93b62c" cx="627.041" cy="-166.599" rx="4.00001" ry="4.00001"/>
<polygon fill="#93b62c" stroke="#93b62c" points="792.48,-108.048 803.408,-108.954 797.193,-106.38 801.907,-104.712 801.907,-104.712 801.907,-104.712 797.193,-106.38 800.405,-100.47 792.48,-108.048 792.48,-108.048"/>
</g>
<!-- UserKey&#45;&gt;Filter -->
<g id="edge13" class="edge"><title>UserKey&#45;&gt;Filter</title>
<path fill="none" stroke="#d2a9aa" d="M624.884,-160.02C650.714,-145.112 686.371,-124.531 711.335,-110.122"/>
<polygon fill="#d2a9aa" stroke="#d2a9aa" points="624.6,-160.184 613.69,-161.285 620.27,-162.683 615.939,-165.183 615.939,-165.183 615.939,-165.183 620.27,-162.683 618.189,-169.08 624.6,-160.184 624.6,-160.184"/>
<polygon fill="#d2a9aa" stroke="#d2a9aa" points="711.349,-110.114 722.259,-109.013 715.679,-107.615 720.01,-105.115 720.01,-105.115 720.01,-105.115 715.679,-107.615 717.76,-101.218 711.349,-110.114 711.349,-110.114"/>
</g>
<!-- UserKey&#45;&gt;User -->
<g id="edge16" class="edge"><title>UserKey&#45;&gt;User</title>
<path fill="none" stroke="#2e62c4" d="M540.208,-176.363C485.677,-172.573 404.52,-163.728 381,-144 373.865,-138.015 369.556,-129.012 366.956,-120.228"/>
<polygon fill="#2e62c4" stroke="#2e62c4" points="540.418,-176.377 550.101,-181.525 545.408,-176.706 550.397,-177.034 550.397,-177.034 550.397,-177.034 545.408,-176.706 550.693,-172.544 540.418,-176.377 540.418,-176.377"/>
<polygon fill="#2e62c4" stroke="#2e62c4" points="366.891,-119.949 369.002,-109.188 365.755,-115.08 364.62,-110.21 364.62,-110.21 364.62,-110.21 365.755,-115.08 360.237,-111.232 366.891,-119.949 366.891,-119.949"/>
<text text-anchor="middle" x="422" y="-132.3" font-family="Times,serif" font-size="14.00">approval_users</text>
</g>
<!-- UserKey&#45;&gt;User -->
<g id="edge17" class="edge"><title>UserKey&#45;&gt;User</title>
<path fill="none" stroke="#3cefc2" d="M546.869,-167.241C527.607,-161.43 505.192,-153.589 486,-144 474.861,-138.434 474.089,-133.664 463,-128 442.216,-117.384 417.469,-108.693 397.793,-102.627"/>
<polygon fill="#3cefc2" stroke="#3cefc2" points="547.023,-167.286 555.358,-174.413 551.822,-168.69 556.621,-170.094 556.621,-170.094 556.621,-170.094 551.822,-168.69 557.884,-165.775 547.023,-167.286 547.023,-167.286"/>
<polygon fill="#3cefc2" stroke="#3cefc2" points="397.594,-102.568 389.305,-95.3875 392.804,-101.133 388.014,-99.6982 388.014,-99.6982 388.014,-99.6982 392.804,-101.133 386.723,-104.009 397.594,-102.568 397.594,-102.568"/>
<text text-anchor="middle" x="529.5" y="-132.3" font-family="Times,serif" font-size="14.00">comment_users</text>
</g>
<!-- UserKey&#45;&gt;UserKeyFilter -->
<g id="edge12" class="edge"><title>UserKey&#45;&gt;UserKeyFilter</title>
<path fill="none" stroke="#770b0e" d="M585.74,-153.968C581.535,-130.983 579.407,-97.0882 596,-74 614.352,-48.4647 646.141,-34.7813 675.285,-27.4505"/>
<ellipse fill="none" stroke="#770b0e" cx="586.556" cy="-157.982" rx="4.00001" ry="4.00001"/>
<polygon fill="#770b0e" stroke="#770b0e" points="675.3,-27.4472 686.055,-29.5849 680.172,-26.3236 685.044,-25.2 685.044,-25.2 685.044,-25.2 680.172,-26.3236 684.033,-20.8151 675.3,-27.4472 675.3,-27.4472"/>
</g>
<!-- UserKey&#45;&gt;UserKeyOrganization -->
<g id="edge11" class="edge"><title>UserKey&#45;&gt;UserKeyOrganization</title>
<path fill="none" stroke="#3ef57b" d="M636.805,-169.245C705.776,-154.228 838.425,-125.348 919.196,-107.762"/>
<ellipse fill="none" stroke="#3ef57b" cx="632.714" cy="-170.136" rx="4.00001" ry="4.00001"/>
<polygon fill="#3ef57b" stroke="#3ef57b" points="919.495,-107.697 930.224,-109.967 924.381,-106.634 929.266,-105.57 929.266,-105.57 929.266,-105.57 924.381,-106.634 928.309,-101.173 919.495,-107.697 919.495,-107.697"/>
</g>
<!-- Object -->
<g id="node11" class="node"><title>Object</title>
<ellipse fill="none" stroke="black" cx="266" cy="-349" rx="34.1708" ry="18"/>
<text text-anchor="middle" x="266" y="-345.3" font-family="Times,serif" font-size="14.00">Object</text>
</g>
<!-- Object&#45;&gt;Ability -->
<g id="edge1" class="edge"><title>Object&#45;&gt;Ability</title>
<path fill="none" stroke="black" d="M266,-330.942C266,-314.267 266,-289.01 266,-272.264"/>
</g>
<!-- ActiveRecord::Base -->
<g id="node12" class="node"><title>ActiveRecord::Base</title>
<ellipse fill="none" stroke="black" cx="790" cy="-349" rx="81.3646" ry="18"/>
<text text-anchor="middle" x="790" y="-345.3" font-family="Times,serif" font-size="14.00">ActiveRecord::Base</text>
</g>
<!-- ActiveRecord::Base&#45;&gt;Approval -->
<g id="edge2" class="edge"><title>ActiveRecord::Base&#45;&gt;Approval</title>
<path fill="none" stroke="black" d="M754.913,-332.623C730.267,-319.956 698.661,-299.59 681,-272 647.896,-220.286 646.623,-143.827 647.922,-110.075"/>
</g>
<!-- ActiveRecord::Base&#45;&gt;Comment -->
<g id="edge3" class="edge"><title>ActiveRecord::Base&#45;&gt;Comment</title>
<path fill="none" stroke="black" d="M813.527,-331.726C825.701,-321.821 839.37,-308.005 846,-292 873.893,-224.659 857.055,-200.046 846,-128 845.073,-121.956 843.294,-115.523 841.433,-109.843"/>
</g>
<!-- ActiveRecord::Base&#45;&gt;Filter -->
<g id="edge5" class="edge"><title>ActiveRecord::Base&#45;&gt;Filter</title>
<path fill="none" stroke="black" d="M797.907,-330.84C807.03,-308.79 819.83,-269.376 812,-236 800.352,-186.347 768.769,-134.196 751.925,-108.789"/>
</g>
<!-- ActiveRecord::Base&#45;&gt;Organization -->
<g id="edge8" class="edge"><title>ActiveRecord::Base&#45;&gt;Organization</title>
<path fill="none" stroke="black" d="M782.113,-330.942C774.355,-314.162 762.578,-288.692 754.837,-271.949"/>
</g>
<!-- ActiveRecord::Base&#45;&gt;User -->
<g id="edge10" class="edge"><title>ActiveRecord::Base&#45;&gt;User</title>
<path fill="none" stroke="black" d="M748.038,-333.517C718.134,-322.859 677.168,-307.571 642,-292 509.685,-233.418 427.567,-267.404 352,-144 345.567,-133.495 349.074,-119.758 353.774,-109.188"/>
</g>
<!-- ActiveRecord::Base&#45;&gt;UserKey -->
<g id="edge18" class="edge"><title>ActiveRecord::Base&#45;&gt;UserKey</title>
<path fill="none" stroke="black" d="M733.643,-335.944C705.253,-327.53 671.884,-313.791 648,-292 619.458,-265.96 603.451,-222.066 596.405,-198.018"/>
</g>
<!-- ActiveRecord::Base&#45;&gt;UserKeyFilter -->
<g id="edge19" class="edge"><title>ActiveRecord::Base&#45;&gt;UserKeyFilter</title>
<path fill="none" stroke="black" d="M862.99,-340.999C955.479,-330.064 1103,-304.815 1103,-255 1103,-255 1103,-255 1103,-91 1103,-30.3659 905.166,-20.0321 801.999,-18.7655"/>
</g>
<!-- ActiveRecord::Base&#45;&gt;UserKeyOrganization -->
<g id="edge20" class="edge"><title>ActiveRecord::Base&#45;&gt;UserKeyOrganization</title>
<path fill="none" stroke="black" d="M814.352,-331.593C828.637,-321.255 846.477,-307.049 860,-292 914.103,-231.792 960.316,-146.041 978.611,-109.994"/>
</g>
</g>
</svg>
