<?xml version="1.0" encoding="UTF-8" standalone="no"?>
<!DOCTYPE svg PUBLIC "-//W3C//DTD SVG 1.1//EN"
 "http://www.w3.org/Graphics/SVG/1.1/DTD/svg11.dtd">
<!-- Generated by graphviz version 2.36.0 (20140111.2315)
 -->
<!-- Title: models_diagram Pages: 1 -->
<svg width="1207pt" height="938pt"
 viewBox="0.00 0.00 1206.91 938.00" xmlns="http://www.w3.org/2000/svg" xmlns:xlink="http://www.w3.org/1999/xlink">
<g id="graph0" class="graph" transform="scale(1 1) rotate(0) translate(4 934)">
<title>models_diagram</title>
<polygon fill="white" stroke="none" points="-4,4 -4,-934 1202.91,-934 1202.91,4 -4,4"/>
<!-- _diagram_info -->
<g id="node1" class="node"><title>_diagram_info</title>
<text text-anchor="start" x="8" y="-915.6" font-family="Times,serif" font-size="13.00">Models diagram</text>
<text text-anchor="start" x="8" y="-901.6" font-family="Times,serif" font-size="13.00">Date: Mar 23 2015 &#45; 12:05</text>
<text text-anchor="start" x="8" y="-887.6" font-family="Times,serif" font-size="13.00">Migration version: 20150304225636</text>
<text text-anchor="start" x="8" y="-873.6" font-family="Times,serif" font-size="13.00">Generated by RailRoady 1.1.1</text>
<text text-anchor="start" x="8" y="-859.6" font-family="Times,serif" font-size="13.00">http://railroady.prestonlee.com</text>
</g>
<!-- Ability -->
<g id="node2" class="node"><title>Ability</title>
<polygon fill="none" stroke="black" points="238.5,-737 238.5,-783 293.5,-783 293.5,-737 238.5,-737"/>
<text text-anchor="middle" x="266" y="-767.8" font-family="Times,serif" font-size="14.00">Ability</text>
<polyline fill="none" stroke="black" points="238.5,-760 293.5,-760 "/>
<text text-anchor="middle" x="266" y="-744.8" font-family="Times,serif" font-size="14.00"> </text>
</g>
<!-- Approval -->
<g id="node3" class="node"><title>Approval</title>
<path fill="none" stroke="black" d="M588.5,-162C588.5,-162 695.5,-162 695.5,-162 701.5,-162 707.5,-168 707.5,-174 707.5,-174 707.5,-256 707.5,-256 707.5,-262 701.5,-268 695.5,-268 695.5,-268 588.5,-268 588.5,-268 582.5,-268 576.5,-262 576.5,-256 576.5,-256 576.5,-174 576.5,-174 576.5,-168 582.5,-162 588.5,-162"/>
<text text-anchor="middle" x="642" y="-252.8" font-family="Times,serif" font-size="14.00">Approval</text>
<polyline fill="none" stroke="black" points="576.5,-245 707.5,-245 "/>
<text text-anchor="start" x="584.5" y="-229.8" font-family="Times,serif" font-size="14.00">id :integer</text>
<text text-anchor="start" x="584.5" y="-214.8" font-family="Times,serif" font-size="14.00">user_id :integer</text>
<text text-anchor="start" x="584.5" y="-199.8" font-family="Times,serif" font-size="14.00">user_key_id :integer</text>
<text text-anchor="start" x="584.5" y="-184.8" font-family="Times,serif" font-size="14.00">created_at :datetime</text>
<text text-anchor="start" x="584.5" y="-169.8" font-family="Times,serif" font-size="14.00">updated_at :datetime</text>
</g>
<!-- Comment -->
<g id="node4" class="node"><title>Comment</title>
<path fill="none" stroke="black" d="M886.5,-147C886.5,-147 993.5,-147 993.5,-147 999.5,-147 1005.5,-153 1005.5,-159 1005.5,-159 1005.5,-271 1005.5,-271 1005.5,-277 999.5,-283 993.5,-283 993.5,-283 886.5,-283 886.5,-283 880.5,-283 874.5,-277 874.5,-271 874.5,-271 874.5,-159 874.5,-159 874.5,-153 880.5,-147 886.5,-147"/>
<text text-anchor="middle" x="940" y="-267.8" font-family="Times,serif" font-size="14.00">Comment</text>
<polyline fill="none" stroke="black" points="874.5,-260 1005.5,-260 "/>
<text text-anchor="start" x="882.5" y="-244.8" font-family="Times,serif" font-size="14.00">id :integer</text>
<text text-anchor="start" x="882.5" y="-229.8" font-family="Times,serif" font-size="14.00">message :text</text>
<text text-anchor="start" x="882.5" y="-214.8" font-family="Times,serif" font-size="14.00">public :boolean</text>
<text text-anchor="start" x="882.5" y="-199.8" font-family="Times,serif" font-size="14.00">user_id :integer</text>
<text text-anchor="start" x="882.5" y="-184.8" font-family="Times,serif" font-size="14.00">user_key_id :integer</text>
<text text-anchor="start" x="882.5" y="-169.8" font-family="Times,serif" font-size="14.00">created_at :datetime</text>
<text text-anchor="start" x="882.5" y="-154.8" font-family="Times,serif" font-size="14.00">updated_at :datetime</text>
</g>
<!-- Filter -->
<g id="node5" class="node"><title>Filter</title>
<path fill="none" stroke="black" d="M737.5,-154.5C737.5,-154.5 844.5,-154.5 844.5,-154.5 850.5,-154.5 856.5,-160.5 856.5,-166.5 856.5,-166.5 856.5,-263.5 856.5,-263.5 856.5,-269.5 850.5,-275.5 844.5,-275.5 844.5,-275.5 737.5,-275.5 737.5,-275.5 731.5,-275.5 725.5,-269.5 725.5,-263.5 725.5,-263.5 725.5,-166.5 725.5,-166.5 725.5,-160.5 731.5,-154.5 737.5,-154.5"/>
<text text-anchor="middle" x="791" y="-260.3" font-family="Times,serif" font-size="14.00">Filter</text>
<polyline fill="none" stroke="black" points="725.5,-252.5 856.5,-252.5 "/>
<text text-anchor="start" x="733.5" y="-237.3" font-family="Times,serif" font-size="14.00">id :integer</text>
<text text-anchor="start" x="733.5" y="-222.3" font-family="Times,serif" font-size="14.00">resource :string</text>
<text text-anchor="start" x="733.5" y="-207.3" font-family="Times,serif" font-size="14.00">filter_name :string</text>
<text text-anchor="start" x="733.5" y="-192.3" font-family="Times,serif" font-size="14.00">filter_value :string</text>
<text text-anchor="start" x="733.5" y="-177.3" font-family="Times,serif" font-size="14.00">created_at :datetime</text>
<text text-anchor="start" x="733.5" y="-162.3" font-family="Times,serif" font-size="14.00">updated_at :datetime</text>
</g>
<!-- UserKeyFilter -->
<g id="node9" class="node"><title>UserKeyFilter</title>
<path fill="none" stroke="black" d="M737.5,-1C737.5,-1 844.5,-1 844.5,-1 850.5,-1 856.5,-7 856.5,-13 856.5,-13 856.5,-95 856.5,-95 856.5,-101 850.5,-107 844.5,-107 844.5,-107 737.5,-107 737.5,-107 731.5,-107 725.5,-101 725.5,-95 725.5,-95 725.5,-13 725.5,-13 725.5,-7 731.5,-1 737.5,-1"/>
<text text-anchor="middle" x="791" y="-91.8" font-family="Times,serif" font-size="14.00">UserKeyFilter</text>
<polyline fill="none" stroke="black" points="725.5,-84 856.5,-84 "/>
<text text-anchor="start" x="733.5" y="-68.8" font-family="Times,serif" font-size="14.00">id :integer</text>
<text text-anchor="start" x="733.5" y="-53.8" font-family="Times,serif" font-size="14.00">user_key_id :integer</text>
<text text-anchor="start" x="733.5" y="-38.8" font-family="Times,serif" font-size="14.00">filter_id :integer</text>
<text text-anchor="start" x="733.5" y="-23.8" font-family="Times,serif" font-size="14.00">created_at :datetime</text>
<text text-anchor="start" x="733.5" y="-8.8" font-family="Times,serif" font-size="14.00">updated_at :datetime</text>
</g>
<!-- Filter&#45;&gt;UserKeyFilter -->
<g id="edge4" class="edge"><title>Filter&#45;&gt;UserKeyFilter</title>
<path fill="none" stroke="#4fa292" d="M791,-146.263C791,-136.652 791,-126.807 791,-117.306"/>
<ellipse fill="none" stroke="#4fa292" cx="791" cy="-150.342" rx="4" ry="4"/>
<polygon fill="#4fa292" stroke="#4fa292" points="791,-117.159 795.5,-107.159 791,-112.159 791,-107.159 791,-107.159 791,-107.159 791,-112.159 786.5,-107.159 791,-117.159 791,-117.159"/>
</g>
<!-- Organization -->
<g id="node6" class="node"><title>Organization</title>
<path fill="none" stroke="black" d="M734.5,-707C734.5,-707 841.5,-707 841.5,-707 847.5,-707 853.5,-713 853.5,-719 853.5,-719 853.5,-801 853.5,-801 853.5,-807 847.5,-813 841.5,-813 841.5,-813 734.5,-813 734.5,-813 728.5,-813 722.5,-807 722.5,-801 722.5,-801 722.5,-719 722.5,-719 722.5,-713 728.5,-707 734.5,-707"/>
<text text-anchor="middle" x="788" y="-797.8" font-family="Times,serif" font-size="14.00">Organization</text>
<polyline fill="none" stroke="black" points="722.5,-790 853.5,-790 "/>
<text text-anchor="start" x="730.5" y="-774.8" font-family="Times,serif" font-size="14.00">id :integer</text>
<text text-anchor="start" x="730.5" y="-759.8" font-family="Times,serif" font-size="14.00">name :string</text>
<text text-anchor="start" x="730.5" y="-744.8" font-family="Times,serif" font-size="14.00">external_id :integer</text>
<text text-anchor="start" x="730.5" y="-729.8" font-family="Times,serif" font-size="14.00">created_at :datetime</text>
<text text-anchor="start" x="730.5" y="-714.8" font-family="Times,serif" font-size="14.00">updated_at :datetime</text>
</g>
<!-- UserKey -->
<g id="node8" class="node"><title>UserKey</title>
<path fill="none" stroke="black" d="M519.5,-336.5C519.5,-336.5 654.5,-336.5 654.5,-336.5 660.5,-336.5 666.5,-342.5 666.5,-348.5 666.5,-348.5 666.5,-655.5 666.5,-655.5 666.5,-661.5 660.5,-667.5 654.5,-667.5 654.5,-667.5 519.5,-667.5 519.5,-667.5 513.5,-667.5 507.5,-661.5 507.5,-655.5 507.5,-655.5 507.5,-348.5 507.5,-348.5 507.5,-342.5 513.5,-336.5 519.5,-336.5"/>
<text text-anchor="middle" x="587" y="-652.3" font-family="Times,serif" font-size="14.00">UserKey</text>
<polyline fill="none" stroke="black" points="507.5,-644.5 666.5,-644.5 "/>
<text text-anchor="start" x="515.5" y="-629.3" font-family="Times,serif" font-size="14.00">id :integer</text>
<text text-anchor="start" x="515.5" y="-614.3" font-family="Times,serif" font-size="14.00">user_id :integer</text>
<text text-anchor="start" x="515.5" y="-599.3" font-family="Times,serif" font-size="14.00">status :string</text>
<text text-anchor="start" x="515.5" y="-584.3" font-family="Times,serif" font-size="14.00">time_submitted :datetime</text>
<text text-anchor="start" x="515.5" y="-569.3" font-family="Times,serif" font-size="14.00">time_filtered :datetime</text>
<text text-anchor="start" x="515.5" y="-554.3" font-family="Times,serif" font-size="14.00">time_confirmed :datetime</text>
<text text-anchor="start" x="515.5" y="-539.3" font-family="Times,serif" font-size="14.00">time_expired :datetime</text>
<text text-anchor="start" x="515.5" y="-524.3" font-family="Times,serif" font-size="14.00">active :boolean</text>
<text text-anchor="start" x="515.5" y="-509.3" font-family="Times,serif" font-size="14.00">value :string</text>
<text text-anchor="start" x="515.5" y="-494.3" font-family="Times,serif" font-size="14.00">proposal_text_one :text</text>
<text text-anchor="start" x="515.5" y="-479.3" font-family="Times,serif" font-size="14.00">proposal_text_two :text</text>
<text text-anchor="start" x="515.5" y="-464.3" font-family="Times,serif" font-size="14.00">proposal_text_three :text</text>
<text text-anchor="start" x="515.5" y="-449.3" font-family="Times,serif" font-size="14.00">proposal_text_four :text</text>
<text text-anchor="start" x="515.5" y="-434.3" font-family="Times,serif" font-size="14.00">proposal_text_five :text</text>
<text text-anchor="start" x="515.5" y="-419.3" font-family="Times,serif" font-size="14.00">proposal_text_six :text</text>
<text text-anchor="start" x="515.5" y="-404.3" font-family="Times,serif" font-size="14.00">proposal_text_seven :text</text>
<text text-anchor="start" x="515.5" y="-389.3" font-family="Times,serif" font-size="14.00">proposal_text_eight :text</text>
<text text-anchor="start" x="515.5" y="-374.3" font-family="Times,serif" font-size="14.00">agree :boolean</text>
<text text-anchor="start" x="515.5" y="-359.3" font-family="Times,serif" font-size="14.00">created_at :datetime</text>
<text text-anchor="start" x="515.5" y="-344.3" font-family="Times,serif" font-size="14.00">updated_at :datetime</text>
</g>
<!-- Organization&#45;&gt;UserKey -->
<g id="edge7" class="edge"><title>Organization&#45;&gt;UserKey</title>
<path fill="none" stroke="#365fbe" d="M740.695,-698.751C720.441,-672.955 696.137,-642 672.897,-612.401"/>
<polygon fill="#365fbe" stroke="#365fbe" points="740.907,-699.021 743.543,-709.665 743.995,-702.953 747.082,-706.886 747.082,-706.886 747.082,-706.886 743.995,-702.953 750.622,-704.107 740.907,-699.021 740.907,-699.021"/>
<polygon fill="#365fbe" stroke="#365fbe" points="672.872,-612.369 670.236,-601.725 669.784,-608.436 666.696,-604.504 666.696,-604.504 666.696,-604.504 669.784,-608.436 663.157,-607.283 672.872,-612.369 672.872,-612.369"/>
</g>
<!-- UserKeyOrganization -->
<g id="node10" class="node"><title>UserKeyOrganization</title>
<path fill="none" stroke="black" d="M1036,-162C1036,-162 1158,-162 1158,-162 1164,-162 1170,-168 1170,-174 1170,-174 1170,-256 1170,-256 1170,-262 1164,-268 1158,-268 1158,-268 1036,-268 1036,-268 1030,-268 1024,-262 1024,-256 1024,-256 1024,-174 1024,-174 1024,-168 1030,-162 1036,-162"/>
<text text-anchor="middle" x="1097" y="-252.8" font-family="Times,serif" font-size="14.00">UserKeyOrganization</text>
<polyline fill="none" stroke="black" points="1024,-245 1170,-245 "/>
<text text-anchor="start" x="1032" y="-229.8" font-family="Times,serif" font-size="14.00">id :integer</text>
<text text-anchor="start" x="1032" y="-214.8" font-family="Times,serif" font-size="14.00">user_key_id :integer</text>
<text text-anchor="start" x="1032" y="-199.8" font-family="Times,serif" font-size="14.00">organization_id :integer</text>
<text text-anchor="start" x="1032" y="-184.8" font-family="Times,serif" font-size="14.00">created_at :datetime</text>
<text text-anchor="start" x="1032" y="-169.8" font-family="Times,serif" font-size="14.00">updated_at :datetime</text>
</g>
<!-- Organization&#45;&gt;UserKeyOrganization -->
<g id="edge6" class="edge"><title>Organization&#45;&gt;UserKeyOrganization</title>
<path fill="none" stroke="#3f87a6" d="M817.982,-699.74C863.144,-611.551 952.467,-441.215 1038,-302 1043.12,-293.669 1048.7,-285.027 1054.33,-276.574"/>
<ellipse fill="none" stroke="#3f87a6" cx="816.101" cy="-703.419" rx="4.00002" ry="4.00002"/>
<polygon fill="#3f87a6" stroke="#3f87a6" points="1054.38,-276.504 1063.69,-270.713 1057.16,-272.354 1059.95,-268.204 1059.95,-268.204 1059.95,-268.204 1057.16,-272.354 1056.22,-265.694 1054.38,-276.504 1054.38,-276.504"/>
</g>
<!-- User -->
<g id="node7" class="node"><title>User</title>
<path fill="none" stroke="black" d="M309.5,-154.5C309.5,-154.5 416.5,-154.5 416.5,-154.5 422.5,-154.5 428.5,-160.5 428.5,-166.5 428.5,-166.5 428.5,-263.5 428.5,-263.5 428.5,-269.5 422.5,-275.5 416.5,-275.5 416.5,-275.5 309.5,-275.5 309.5,-275.5 303.5,-275.5 297.5,-269.5 297.5,-263.5 297.5,-263.5 297.5,-166.5 297.5,-166.5 297.5,-160.5 303.5,-154.5 309.5,-154.5"/>
<text text-anchor="middle" x="363" y="-260.3" font-family="Times,serif" font-size="14.00">User</text>
<polyline fill="none" stroke="black" points="297.5,-252.5 428.5,-252.5 "/>
<text text-anchor="start" x="305.5" y="-237.3" font-family="Times,serif" font-size="14.00">id :integer</text>
<text text-anchor="start" x="305.5" y="-222.3" font-family="Times,serif" font-size="14.00">andrew_id :string</text>
<text text-anchor="start" x="305.5" y="-207.3" font-family="Times,serif" font-size="14.00">role :string</text>
<text text-anchor="start" x="305.5" y="-192.3" font-family="Times,serif" font-size="14.00">active :boolean</text>
<text text-anchor="start" x="305.5" y="-177.3" font-family="Times,serif" font-size="14.00">created_at :datetime</text>
<text text-anchor="start" x="305.5" y="-162.3" font-family="Times,serif" font-size="14.00">updated_at :datetime</text>
</g>
<!-- User&#45;&gt;UserKey -->
<g id="edge9" class="edge"><title>User&#45;&gt;UserKey</title>
<path fill="none" stroke="#fed600" d="M353.019,-283.822C353.676,-295.626 355.982,-307.479 361,-318 389.56,-377.875 448.342,-424.497 498.797,-455.697"/>
<ellipse fill="none" stroke="#fed600" cx="352.915" cy="-279.673" rx="4" ry="4"/>
<polygon fill="#fed600" stroke="#fed600" points="498.914,-455.768 505.128,-464.803 503.188,-458.362 507.463,-460.956 507.463,-460.956 507.463,-460.956 503.188,-458.362 509.798,-457.109 498.914,-455.768 498.914,-455.768"/>
</g>
<!-- UserKey&#45;&gt;Approval -->
<g id="edge15" class="edge"><title>UserKey&#45;&gt;Approval</title>
<path fill="none" stroke="#22dd7f" d="M620.311,-328.39C623.725,-310.698 627.014,-293.654 629.954,-278.419"/>
<ellipse fill="none" stroke="#22dd7f" cx="619.513" cy="-332.525" rx="4.00001" ry="4.00001"/>
<polygon fill="#22dd7f" stroke="#22dd7f" points="630.036,-277.994 636.35,-269.028 630.984,-273.084 631.931,-268.175 631.931,-268.175 631.931,-268.175 630.984,-273.084 627.513,-267.322 630.036,-277.994 630.036,-277.994"/>
</g>
<!-- UserKey&#45;&gt;Comment -->
<g id="edge14" class="edge"><title>UserKey&#45;&gt;Comment</title>
<path fill="none" stroke="#f4d584" d="M673.403,-436.167C728.949,-393.853 802.206,-336.851 865,-284 865.58,-283.512 866.162,-283.021 866.745,-282.527"/>
<ellipse fill="none" stroke="#f4d584" cx="669.902" cy="-438.831" rx="4.00002" ry="4.00002"/>
<polygon fill="#f4d584" stroke="#f4d584" points="866.795,-282.484 877.319,-279.402 870.594,-279.234 874.393,-275.983 874.393,-275.983 874.393,-275.983 870.594,-279.234 871.468,-272.564 866.795,-282.484 866.795,-282.484"/>
</g>
<!-- UserKey&#45;&gt;Filter -->
<g id="edge13" class="edge"><title>UserKey&#45;&gt;Filter</title>
<path fill="none" stroke="#02d13b" d="M672.649,-381.343C696.434,-348.115 721.436,-313.185 742.3,-284.036"/>
<polygon fill="#02d13b" stroke="#02d13b" points="672.569,-381.456 663.089,-386.968 669.658,-385.521 666.748,-389.587 666.748,-389.587 666.748,-389.587 669.658,-385.521 670.407,-392.206 672.569,-381.456 672.569,-381.456"/>
<polygon fill="#02d13b" stroke="#02d13b" points="742.532,-283.712 752.012,-278.2 745.443,-279.646 748.353,-275.581 748.353,-275.581 748.353,-275.581 745.443,-279.646 744.694,-272.961 742.532,-283.712 742.532,-283.712"/>
</g>
<!-- UserKey&#45;&gt;User -->
<g id="edge16" class="edge"><title>UserKey&#45;&gt;User</title>
<path fill="none" stroke="#5bf831" d="M499.314,-444.308C456.95,-412.313 409.28,-368.609 381,-318 375.471,-308.105 371.573,-296.899 368.839,-285.627"/>
<polygon fill="#5bf831" stroke="#5bf831" points="499.409,-444.378 504.746,-453.957 503.42,-447.362 507.432,-450.346 507.432,-450.346 507.432,-450.346 503.42,-447.362 510.118,-446.736 499.409,-444.378 499.409,-444.378"/>
<polygon fill="#5bf831" stroke="#5bf831" points="368.815,-285.515 371.124,-274.795 367.769,-280.625 366.724,-275.736 366.724,-275.736 366.724,-275.736 367.769,-280.625 362.323,-276.677 368.815,-285.515 368.815,-285.515"/>
<text text-anchor="middle" x="422" y="-306.3" font-family="Times,serif" font-size="14.00">approval_users</text>
</g>
<!-- UserKey&#45;&gt;User -->
<g id="edge17" class="edge"><title>UserKey&#45;&gt;User</title>
<path fill="none" stroke="#36f4b5" d="M501.589,-352.554C489.414,-334.935 476.436,-317.667 463,-302 454.884,-292.536 445.697,-283.208 436.262,-274.386"/>
<polygon fill="#36f4b5" stroke="#36f4b5" points="501.867,-352.963 503.78,-363.761 504.683,-357.095 507.499,-361.226 507.499,-361.226 507.499,-361.226 504.683,-357.095 511.217,-358.692 501.867,-352.963 501.867,-352.963"/>
<polygon fill="#36f4b5" stroke="#36f4b5" points="436.034,-274.178 431.696,-264.107 432.346,-270.802 428.658,-267.426 428.658,-267.426 428.658,-267.426 432.346,-270.802 425.619,-270.746 436.034,-274.178 436.034,-274.178"/>
<text text-anchor="middle" x="518.5" y="-306.3" font-family="Times,serif" font-size="14.00">comment_users</text>
</g>
<!-- UserKey&#45;&gt;UserKeyFilter -->
<g id="edge12" class="edge"><title>UserKey&#45;&gt;UserKeyFilter</title>
<path fill="none" stroke="#00bcf8" d="M568.542,-327.832C561.452,-245.656 557.329,-161.88 568,-146 600.688,-97.3567 664.425,-74.7 715.416,-64.1557"/>
<ellipse fill="none" stroke="#00bcf8" cx="568.933" cy="-332.306" rx="4" ry="4"/>
<polygon fill="#00bcf8" stroke="#00bcf8" points="715.616,-64.1169 726.292,-66.6212 720.524,-63.1606 725.432,-62.2043 725.432,-62.2043 725.432,-62.2043 720.524,-63.1606 724.571,-57.7873 715.616,-64.1169 715.616,-64.1169"/>
</g>
<!-- UserKey&#45;&gt;UserKeyOrganization -->
<g id="edge11" class="edge"><title>UserKey&#45;&gt;UserKeyOrganization</title>
<path fill="none" stroke="#2b2972" d="M673.268,-438.185C738.316,-393.736 831.366,-336.175 921,-302 960.338,-287.001 975.888,-301.886 1014,-284 1020.12,-281.129 1026.17,-277.705 1032.05,-273.944"/>
<ellipse fill="none" stroke="#2b2972" cx="669.964" cy="-440.453" rx="4.00002" ry="4.00002"/>
<polygon fill="#2b2972" stroke="#2b2972" points="1032.24,-273.814 1043.05,-271.946 1036.39,-271.015 1040.53,-268.217 1040.53,-268.217 1040.53,-268.217 1036.39,-271.015 1038.01,-264.488 1032.24,-273.814 1032.24,-273.814"/>
</g>
<!-- Object -->
<g id="node11" class="node"><title>Object</title>
<ellipse fill="none" stroke="black" cx="266" cy="-891" rx="34.1708" ry="18"/>
<text text-anchor="middle" x="266" y="-887.3" font-family="Times,serif" font-size="14.00">Object</text>
</g>
<!-- Object&#45;&gt;Ability -->
<g id="edge1" class="edge"><title>Object&#45;&gt;Ability</title>
<path fill="none" stroke="black" d="M266,-872.87C266,-849.842 266,-808.86 266,-783.406"/>
</g>
<!-- ActiveRecord::Base -->
<g id="node12" class="node"><title>ActiveRecord::Base</title>
<ellipse fill="none" stroke="black" cx="853" cy="-891" rx="81.3646" ry="18"/>
<text text-anchor="middle" x="853" y="-887.3" font-family="Times,serif" font-size="14.00">ActiveRecord::Base</text>
</g>
<!-- ActiveRecord::Base&#45;&gt;Approval -->
<g id="edge2" class="edge"><title>ActiveRecord::Base&#45;&gt;Approval</title>
<path fill="none" stroke="black" d="M804.12,-876.487C772.887,-865.145 734.521,-845.602 714,-814 655.958,-724.617 693.544,-440.949 675,-336 671.015,-313.446 664.672,-288.996 658.607,-268.087"/>
</g>
<!-- ActiveRecord::Base&#45;&gt;Comment -->
<g id="edge3" class="edge"><title>ActiveRecord::Base&#45;&gt;Comment</title>
<path fill="none" stroke="black" d="M860.585,-872.65C865.083,-861.741 870.558,-847.267 874,-834 876.257,-825.3 875.862,-822.916 877,-814 901.514,-621.907 923.58,-394.214 933.875,-283.373"/>
</g>
<!-- ActiveRecord::Base&#45;&gt;Filter -->
<g id="edge5" class="edge"><title>ActiveRecord::Base&#45;&gt;Filter</title>
<path fill="none" stroke="black" d="M855.617,-872.847C857.822,-857.476 860.803,-834.293 862,-814 864.827,-766.083 865.451,-753.876 862,-706 850.738,-549.747 819.527,-367.629 802.479,-275.665"/>
</g>
<!-- ActiveRecord::Base&#45;&gt;Organization -->
<g id="edge8" class="edge"><title>ActiveRecord::Base&#45;&gt;Organization</title>
<path fill="none" stroke="black" d="M844.369,-872.87C836.667,-857.586 824.982,-834.394 814.243,-813.082"/>
</g>
<!-- ActiveRecord::Base&#45;&gt;User -->
<g id="edge10" class="edge"><title>ActiveRecord::Base&#45;&gt;User</title>
<path fill="none" stroke="black" d="M785.213,-881.047C732.455,-871.422 659.464,-852.041 606,-814 404.201,-670.414 400.916,-560.79 352,-318 349.256,-304.381 349.205,-289.592 350.462,-275.61"/>
</g>
<!-- ActiveRecord::Base&#45;&gt;UserKey -->
<g id="edge18" class="edge"><title>ActiveRecord::Base&#45;&gt;UserKey</title>
<path fill="none" stroke="black" d="M781.067,-882.588C746.242,-875.434 706.367,-861.42 680,-834 637.075,-789.361 613.668,-726.538 601.009,-667.603"/>
</g>
<!-- ActiveRecord::Base&#45;&gt;UserKeyFilter -->
<g id="edge19" class="edge"><title>ActiveRecord::Base&#45;&gt;UserKeyFilter</title>
<path fill="none" stroke="black" d="M916.278,-879.679C1015.88,-861.621 1198,-820.47 1198,-761 1198,-761 1198,-761 1198,-214 1198,-182.62 1201.65,-167.717 1179,-146 1133.3,-102.186 954.669,-74.5115 856.509,-62.2907"/>
</g>
<!-- ActiveRecord::Base&#45;&gt;UserKeyOrganization -->
<g id="edge20" class="edge"><title>ActiveRecord::Base&#45;&gt;UserKeyOrganization</title>
<path fill="none" stroke="black" d="M864.66,-872.707C871.785,-861.819 880.868,-847.348 888,-834 892.594,-825.403 893.45,-823.078 897,-814 974.652,-615.448 1049.9,-372.91 1081.47,-268.218"/>
</g>
</g>
</svg>
