<?xml version="1.0" encoding="UTF-8" standalone="no"?>
<!DOCTYPE svg PUBLIC "-//W3C//DTD SVG 1.1//EN"
 "http://www.w3.org/Graphics/SVG/1.1/DTD/svg11.dtd">
<!-- Generated by graphviz version 2.38.0 (20140413.2041)
 -->
<!-- Title: models_diagram Pages: 1 -->
<svg width="1143pt" height="313pt"
 viewBox="0.00 0.00 1143.37 313.00" xmlns="http://www.w3.org/2000/svg" xmlns:xlink="http://www.w3.org/1999/xlink">
<g id="graph0" class="graph" transform="scale(1 1) rotate(0) translate(4 309)">
<title>models_diagram</title>
<polygon fill="white" stroke="none" points="-4,4 -4,-309 1139.37,-309 1139.37,4 -4,4"/>
<!-- _diagram_info -->
<g id="node1" class="node"><title>_diagram_info</title>
<text text-anchor="start" x="8" y="-290.6" font-family="Times,serif" font-size="13.00">Models diagram</text>
<text text-anchor="start" x="8" y="-277.6" font-family="Times,serif" font-size="13.00">Date: Apr 25 2015 &#45; 09:40</text>
<text text-anchor="start" x="8" y="-264.6" font-family="Times,serif" font-size="13.00">Migration version: 20150409004346</text>
<text text-anchor="start" x="8" y="-251.6" font-family="Times,serif" font-size="13.00">Generated by RailRoady 1.3.0</text>
<text text-anchor="start" x="8" y="-238.6" font-family="Times,serif" font-size="13.00">http://railroady.prestonlee.com</text>
</g>
<!-- Ability -->
<g id="node2" class="node"><title>Ability</title>
<polygon fill="none" stroke="black" points="281.358,-286.5 226.018,-286.5 226.018,-250.5 281.358,-250.5 281.358,-286.5"/>
<text text-anchor="middle" x="253.688" y="-264.3" font-family="Times,serif" font-size="14.00">Ability</text>
</g>
<!-- Answer -->
<g id="node3" class="node"><title>Answer</title>
<ellipse fill="none" stroke="black" cx="441.688" cy="-91" rx="37.7266" ry="18"/>
<text text-anchor="middle" x="441.688" y="-86.8" font-family="Times,serif" font-size="14.00">Answer</text>
</g>
<!-- Approval -->
<g id="node4" class="node"><title>Approval</title>
<ellipse fill="none" stroke="black" cx="621.688" cy="-91" rx="43.5146" ry="18"/>
<text text-anchor="middle" x="621.688" y="-86.8" font-family="Times,serif" font-size="14.00">Approval</text>
</g>
<!-- Column -->
<g id="node5" class="node"><title>Column</title>
<ellipse fill="none" stroke="black" cx="337.688" cy="-268.5" rx="38.7128" ry="18"/>
<text text-anchor="middle" x="337.688" y="-264.3" font-family="Times,serif" font-size="14.00">Column</text>
</g>
<!-- UserKey -->
<g id="node14" class="node"><title>UserKey</title>
<ellipse fill="none" stroke="black" cx="586.688" cy="-177" rx="41.5766" ry="18"/>
<text text-anchor="middle" x="586.688" y="-172.8" font-family="Times,serif" font-size="14.00">UserKey</text>
</g>
<!-- Column&#45;&gt;UserKey -->
<g id="edge2" class="edge"><title>Column&#45;&gt;UserKey</title>
<path fill="none" stroke="#5c1b8d" d="M376.935,-253.393C423.109,-236.796 499.382,-209.381 546.12,-192.582"/>
<polygon fill="#5c1b8d" stroke="#5c1b8d" points="376.64,-253.499 365.707,-252.647 371.934,-255.19 367.229,-256.882 367.229,-256.882 367.229,-256.882 371.934,-255.19 368.751,-261.116 376.64,-253.499 376.64,-253.499"/>
<polygon fill="#5c1b8d" stroke="#5c1b8d" points="546.213,-192.548 557.146,-193.4 550.919,-190.857 555.624,-189.166 555.624,-189.166 555.624,-189.166 550.919,-190.857 554.102,-184.931 546.213,-192.548 546.213,-192.548"/>
</g>
<!-- UserKeyColumn -->
<g id="node15" class="node"><title>UserKeyColumn</title>
<ellipse fill="none" stroke="black" cx="315.688" cy="-91" rx="70.0754" ry="18"/>
<text text-anchor="middle" x="315.688" y="-86.8" font-family="Times,serif" font-size="14.00">UserKeyColumn</text>
</g>
<!-- Column&#45;&gt;UserKeyColumn -->
<g id="edge1" class="edge"><title>Column&#45;&gt;UserKeyColumn</title>
<path fill="none" stroke="#16e948" d="M334.522,-242.247C330.427,-209.578 323.32,-152.883 319.105,-119.262"/>
<ellipse fill="none" stroke="#16e948" cx="335.041" cy="-246.384" rx="4.00001" ry="4.00001"/>
<polygon fill="#16e948" stroke="#16e948" points="319.09,-119.139 322.311,-108.657 318.468,-114.178 317.846,-109.217 317.846,-109.217 317.846,-109.217 318.468,-114.178 313.381,-109.777 319.09,-119.139 319.09,-119.139"/>
</g>
<!-- Comment -->
<g id="node6" class="node"><title>Comment</title>
<ellipse fill="none" stroke="black" cx="727.688" cy="-91" rx="44.9768" ry="18"/>
<text text-anchor="middle" x="727.688" y="-86.8" font-family="Times,serif" font-size="14.00">Comment</text>
</g>
<!-- EndpointRequest -->
<g id="node7" class="node"><title>EndpointRequest</title>
<polygon fill="none" stroke="black" points="853.123,-286.5 740.252,-286.5 740.252,-250.5 853.123,-250.5 853.123,-286.5"/>
<text text-anchor="middle" x="796.688" y="-264.3" font-family="Times,serif" font-size="14.00">EndpointRequest</text>
</g>
<!-- EndpointResponse -->
<g id="node8" class="node"><title>EndpointResponse</title>
<polygon fill="none" stroke="black" points="992.181,-286.5 871.195,-286.5 871.195,-250.5 992.181,-250.5 992.181,-286.5"/>
<text text-anchor="middle" x="931.688" y="-264.3" font-family="Times,serif" font-size="14.00">EndpointResponse</text>
</g>
<!-- Filter -->
<g id="node9" class="node"><title>Filter</title>
<ellipse fill="none" stroke="black" cx="1073.69" cy="-177" rx="29.0343" ry="18"/>
<text text-anchor="middle" x="1073.69" y="-172.8" font-family="Times,serif" font-size="14.00">Filter</text>
</g>
<!-- Whitelist -->
<g id="node17" class="node"><title>Whitelist</title>
<ellipse fill="none" stroke="black" cx="1026.69" cy="-91" rx="42.5542" ry="18"/>
<text text-anchor="middle" x="1026.69" y="-86.8" font-family="Times,serif" font-size="14.00">Whitelist</text>
</g>
<!-- Filter&#45;&gt;Whitelist -->
<g id="edge4" class="edge"><title>Filter&#45;&gt;Whitelist</title>
<path fill="none" stroke="#20c48d" d="M1059.65,-150.909C1053.75,-140.363 1046.89,-128.108 1040.96,-117.517"/>
<polygon fill="#20c48d" stroke="#20c48d" points="1059.74,-151.077 1060.7,-162.001 1062.18,-155.441 1064.63,-159.804 1064.63,-159.804 1064.63,-159.804 1062.18,-155.441 1068.55,-157.607 1059.74,-151.077 1059.74,-151.077"/>
<polygon fill="#20c48d" stroke="#20c48d" points="1040.93,-117.448 1039.97,-106.524 1038.49,-113.085 1036.04,-108.721 1036.04,-108.721 1036.04,-108.721 1038.49,-113.085 1032.12,-110.919 1040.93,-117.448 1040.93,-117.448"/>
</g>
<!-- WhitelistFilter -->
<g id="node18" class="node"><title>WhitelistFilter</title>
<ellipse fill="none" stroke="black" cx="1073.69" cy="-18" rx="61.8736" ry="18"/>
<text text-anchor="middle" x="1073.69" y="-13.8" font-family="Times,serif" font-size="14.00">WhitelistFilter</text>
</g>
<!-- Filter&#45;&gt;WhitelistFilter -->
<g id="edge3" class="edge"><title>Filter&#45;&gt;WhitelistFilter</title>
<path fill="none" stroke="#fea2bc" d="M1076.24,-150.83C1078.03,-129.977 1079.91,-99.5639 1078.69,-73 1078.28,-64.2709 1077.52,-54.7734 1076.7,-46.2121"/>
<ellipse fill="none" stroke="#fea2bc" cx="1075.87" cy="-154.886" rx="4" ry="4"/>
<polygon fill="#fea2bc" stroke="#fea2bc" points="1076.67,-45.9458 1080.14,-35.5433 1076.17,-40.9712 1075.67,-35.9966 1075.67,-35.9966 1075.67,-35.9966 1076.17,-40.9712 1071.19,-36.4499 1076.67,-45.9458 1076.67,-45.9458"/>
</g>
<!-- Organization -->
<g id="node10" class="node"><title>Organization</title>
<ellipse fill="none" stroke="black" cx="666.688" cy="-268.5" rx="56.2326" ry="18"/>
<text text-anchor="middle" x="666.688" y="-264.3" font-family="Times,serif" font-size="14.00">Organization</text>
</g>
<!-- Organization&#45;&gt;UserKey -->
<g id="edge6" class="edge"><title>Organization&#45;&gt;UserKey</title>
<path fill="none" stroke="#d41348" d="M645.096,-243.344C633.506,-230.378 619.278,-214.461 607.767,-201.583"/>
<polygon fill="#d41348" stroke="#d41348" points="645.35,-243.629 648.659,-254.083 648.682,-247.356 652.015,-251.084 652.015,-251.084 652.015,-251.084 648.682,-247.356 655.37,-248.085 645.35,-243.629 645.35,-243.629"/>
<polygon fill="#d41348" stroke="#d41348" points="607.663,-201.466 604.354,-191.012 604.331,-197.738 600.999,-194.01 600.999,-194.01 600.999,-194.01 604.331,-197.738 597.644,-197.009 607.663,-201.466 607.663,-201.466"/>
</g>
<!-- UserKeyOrganization -->
<g id="node16" class="node"><title>UserKeyOrganization</title>
<ellipse fill="none" stroke="black" cx="878.688" cy="-91" rx="87.5952" ry="18"/>
<text text-anchor="middle" x="878.688" y="-86.8" font-family="Times,serif" font-size="14.00">UserKeyOrganization</text>
</g>
<!-- Organization&#45;&gt;UserKeyOrganization -->
<g id="edge5" class="edge"><title>Organization&#45;&gt;UserKeyOrganization</title>
<path fill="none" stroke="#2b6e9a" d="M692.493,-246.138C732.572,-212.959 809.46,-149.309 850.783,-115.1"/>
<ellipse fill="none" stroke="#2b6e9a" cx="689.333" cy="-248.753" rx="4.00002" ry="4.00002"/>
<polygon fill="#2b6e9a" stroke="#2b6e9a" points="850.849,-115.046 861.422,-112.135 854.701,-111.857 858.552,-108.669 858.552,-108.669 858.552,-108.669 854.701,-111.857 855.683,-105.202 850.849,-115.046 850.849,-115.046"/>
</g>
<!-- Page -->
<g id="node11" class="node"><title>Page</title>
<ellipse fill="none" stroke="black" cx="1037.69" cy="-268.5" rx="27.0958" ry="18"/>
<text text-anchor="middle" x="1037.69" y="-264.3" font-family="Times,serif" font-size="14.00">Page</text>
</g>
<!-- Question -->
<g id="node12" class="node"><title>Question</title>
<ellipse fill="none" stroke="black" cx="493.688" cy="-268.5" rx="42.0784" ry="18"/>
<text text-anchor="middle" x="493.688" y="-264.3" font-family="Times,serif" font-size="14.00">Question</text>
</g>
<!-- Question&#45;&gt;Answer -->
<g id="edge7" class="edge"><title>Question&#45;&gt;Answer</title>
<path fill="none" stroke="#fa1137" d="M481.465,-243.68C469.377,-218.797 451.577,-178.268 443.688,-141 442.253,-134.222 441.528,-126.802 441.207,-119.833"/>
<ellipse fill="none" stroke="#fa1137" cx="483.246" cy="-247.291" rx="4.00002" ry="4.00002"/>
<polygon fill="#fa1137" stroke="#fa1137" points="441.198,-119.408 445.49,-109.317 441.095,-114.409 440.991,-109.41 440.991,-109.41 440.991,-109.41 441.095,-114.409 436.492,-109.503 441.198,-119.408 441.198,-119.408"/>
</g>
<!-- Question&#45;&gt;UserKey -->
<g id="edge8" class="edge"><title>Question&#45;&gt;UserKey</title>
<path fill="none" stroke="#1821df" d="M517.948,-244.153C531.827,-230.796 549.163,-214.112 562.953,-200.841"/>
<polygon fill="#1821df" stroke="#1821df" points="517.52,-244.565 507.194,-248.257 513.917,-248.032 510.314,-251.499 510.314,-251.499 510.314,-251.499 513.917,-248.032 513.435,-254.742 517.52,-244.565 517.52,-244.565"/>
<polygon fill="#1821df" stroke="#1821df" points="563,-200.796 573.326,-197.105 566.602,-197.329 570.205,-193.862 570.205,-193.862 570.205,-193.862 566.602,-197.329 567.085,-190.62 563,-200.796 563,-200.796"/>
</g>
<!-- User -->
<g id="node13" class="node"><title>User</title>
<ellipse fill="none" stroke="black" cx="532.688" cy="-91" rx="27" ry="18"/>
<text text-anchor="middle" x="532.688" y="-86.8" font-family="Times,serif" font-size="14.00">User</text>
</g>
<!-- User&#45;&gt;UserKey -->
<g id="edge9" class="edge"><title>User&#45;&gt;UserKey</title>
<path fill="none" stroke="#32ca54" d="M547.515,-114.438C550.246,-118.606 553.062,-122.929 555.688,-127 560.628,-134.662 565.953,-143.035 570.771,-150.657"/>
<ellipse fill="none" stroke="#32ca54" cx="545.247" cy="-110.986" rx="4.00002" ry="4.00002"/>
<polygon fill="#32ca54" stroke="#32ca54" points="570.807,-150.714 572.336,-161.573 573.475,-154.943 576.142,-159.172 576.142,-159.172 576.142,-159.172 573.475,-154.943 579.948,-156.772 570.807,-150.714 570.807,-150.714"/>
</g>
<!-- UserKey&#45;&gt;Answer -->
<g id="edge15" class="edge"><title>UserKey&#45;&gt;Answer</title>
<path fill="none" stroke="#8eb7f3" d="M537.106,-173.999C510.13,-170.387 478.011,-161.609 456.688,-141 450.66,-135.175 447.038,-127 444.867,-118.994"/>
<ellipse fill="none" stroke="#8eb7f3" cx="541.322" cy="-174.494" rx="4.00001" ry="4.00001"/>
<polygon fill="#8eb7f3" stroke="#8eb7f3" points="444.852,-118.925 447.226,-108.219 443.836,-114.029 442.82,-109.134 442.82,-109.134 442.82,-109.134 443.836,-114.029 438.414,-110.048 444.852,-118.925 444.852,-118.925"/>
</g>
<!-- UserKey&#45;&gt;Approval -->
<g id="edge14" class="edge"><title>UserKey&#45;&gt;Approval</title>
<path fill="none" stroke="#9e36b3" d="M635.602,-171.441C655.433,-166.906 676.496,-158.073 688.688,-141 699.051,-126.487 683.739,-114.555 665.153,-106.1"/>
<ellipse fill="none" stroke="#9e36b3" cx="631.422" cy="-172.287" rx="4.00001" ry="4.00001"/>
<polygon fill="#9e36b3" stroke="#9e36b3" points="665.096,-106.077 657.594,-98.0786 660.48,-104.155 655.864,-102.233 655.864,-102.233 655.864,-102.233 660.48,-104.155 654.134,-106.387 665.096,-106.077 665.096,-106.077"/>
</g>
<!-- UserKey&#45;&gt;Comment -->
<g id="edge13" class="edge"><title>UserKey&#45;&gt;Comment</title>
<path fill="none" stroke="#7d72c0" d="M634.826,-170.669C657.817,-166.017 684.444,-157.308 703.688,-141 710.648,-135.102 715.768,-126.706 719.447,-118.527"/>
<ellipse fill="none" stroke="#7d72c0" cx="630.796" cy="-171.419" rx="4.00001" ry="4.00001"/>
<polygon fill="#7d72c0" stroke="#7d72c0" points="719.461,-118.491 727.315,-110.838 721.295,-113.839 723.129,-109.187 723.129,-109.187 723.129,-109.187 721.295,-113.839 718.942,-107.537 719.461,-118.491 719.461,-118.491"/>
</g>
<!-- UserKey&#45;&gt;User -->
<g id="edge16" class="edge"><title>UserKey&#45;&gt;User</title>
<path fill="none" stroke="#580713" d="M582.57,-148.858C580.639,-141.393 577.813,-133.555 573.688,-127 569.936,-121.04 564.848,-115.559 559.532,-110.792"/>
<polygon fill="#580713" stroke="#580713" points="582.574,-148.877 580.29,-159.602 583.631,-153.764 584.688,-158.651 584.688,-158.651 584.688,-158.651 583.631,-153.764 589.087,-157.699 582.574,-148.877 582.574,-148.877"/>
<polygon fill="#580713" stroke="#580713" points="559.427,-110.705 554.574,-100.871 555.569,-107.524 551.712,-104.344 551.712,-104.344 551.712,-104.344 555.569,-107.524 548.849,-107.816 559.427,-110.705 559.427,-110.705"/>
<text text-anchor="middle" x="622.064" y="-129.8" font-family="Times,serif" font-size="14.00">approval_users</text>
</g>
<!-- UserKey&#45;&gt;User -->
<g id="edge17" class="edge"><title>UserKey&#45;&gt;User</title>
<path fill="none" stroke="#2d31c4" d="M537.96,-168.263C507.751,-162.359 473.004,-153.167 463.819,-141 460.07,-136.034 460.565,-132.304 463.819,-127 468.175,-119.9 484.519,-111.449 500.191,-104.631"/>
<polygon fill="#2d31c4" stroke="#2d31c4" points="538.158,-168.3 547.16,-174.562 543.073,-169.219 547.988,-170.138 547.988,-170.138 547.988,-170.138 543.073,-169.219 548.815,-165.715 538.158,-168.3 538.158,-168.3"/>
<polygon fill="#2d31c4" stroke="#2d31c4" points="500.527,-104.49 511.489,-104.773 505.138,-102.556 509.749,-100.623 509.749,-100.623 509.749,-100.623 505.138,-102.556 508.009,-96.4729 500.527,-104.49 500.527,-104.49"/>
<text text-anchor="middle" x="507.622" y="-129.8" font-family="Times,serif" font-size="14.00">comment_users</text>
</g>
<!-- UserKey&#45;&gt;UserKeyColumn -->
<g id="edge12" class="edge"><title>UserKey&#45;&gt;UserKeyColumn</title>
<path fill="none" stroke="#0eb571" d="M542.062,-166.594C513.654,-160.234 476.217,-151.163 443.688,-141 415.416,-132.167 384.376,-120.339 359.943,-110.517"/>
<ellipse fill="none" stroke="#0eb571" cx="546.292" cy="-167.531" rx="4.00001" ry="4.00001"/>
<polygon fill="#0eb571" stroke="#0eb571" points="359.852,-110.48 352.275,-102.553 355.218,-108.602 350.584,-106.723 350.584,-106.723 350.584,-106.723 355.218,-108.602 348.893,-110.894 359.852,-110.48 359.852,-110.48"/>
</g>
<!-- UserKey&#45;&gt;UserKeyOrganization -->
<g id="edge10" class="edge"><title>UserKey&#45;&gt;UserKeyOrganization</title>
<path fill="none" stroke="#04acdc" d="M630.083,-165.449C656.867,-158.784 691.881,-149.796 722.688,-141 756.777,-131.267 794.731,-119.369 824.666,-109.735"/>
<ellipse fill="none" stroke="#04acdc" cx="625.931" cy="-166.478" rx="4.00001" ry="4.00001"/>
<polygon fill="#04acdc" stroke="#04acdc" points="824.978,-109.635 835.877,-110.843 829.736,-108.098 834.494,-106.561 834.494,-106.561 834.494,-106.561 829.736,-108.098 833.111,-102.279 824.978,-109.635 824.978,-109.635"/>
</g>
<!-- UserKey&#45;&gt;Whitelist -->
<g id="edge11" class="edge"><title>UserKey&#45;&gt;Whitelist</title>
<path fill="none" stroke="#93a60b" d="M634.516,-170.134C708.394,-160.543 854.413,-139.47 975.688,-109 978.901,-108.193 982.204,-107.282 985.51,-106.313"/>
<ellipse fill="none" stroke="#93a60b" cx="630.269" cy="-170.681" rx="4.00001" ry="4.00001"/>
<polygon fill="#93a60b" stroke="#93a60b" points="985.795,-106.225 996.678,-107.572 990.572,-104.749 995.349,-103.273 995.349,-103.273 995.349,-103.273 990.572,-104.749 994.021,-98.9732 985.795,-106.225 985.795,-106.225"/>
</g>
<!-- Whitelist&#45;&gt;WhitelistFilter -->
<g id="edge18" class="edge"><title>Whitelist&#45;&gt;WhitelistFilter</title>
<path fill="none" stroke="#ed28c6" d="M1042.02,-66.8348C1046.72,-59.7374 1051.92,-51.8887 1056.72,-44.6366"/>
<ellipse fill="none" stroke="#ed28c6" cx="1039.8" cy="-70.1973" rx="4.00002" ry="4.00002"/>
<polygon fill="#ed28c6" stroke="#ed28c6" points="1057,-44.2096 1066.27,-38.355 1059.76,-40.0403 1062.52,-35.871 1062.52,-35.871 1062.52,-35.871 1059.76,-40.0403 1058.77,-33.3871 1057,-44.2096 1057,-44.2096"/>
</g>
</g>
</svg>
