<?xml version="1.0" encoding="UTF-8" standalone="no"?>
<!DOCTYPE svg PUBLIC "-//W3C//DTD SVG 1.1//EN"
 "http://www.w3.org/Graphics/SVG/1.1/DTD/svg11.dtd">
<!-- Generated by graphviz version 2.38.0 (20140413.2041)
 -->
<!-- Title: models_diagram Pages: 1 -->
<svg width="1374pt" height="676pt"
 viewBox="0.00 0.00 1374.19 676.00" xmlns="http://www.w3.org/2000/svg" xmlns:xlink="http://www.w3.org/1999/xlink">
<g id="graph0" class="graph" transform="scale(1 1) rotate(0) translate(4 672)">
<title>models_diagram</title>
<polygon fill="white" stroke="none" points="-4,4 -4,-672 1370.19,-672 1370.19,4 -4,4"/>
<!-- _diagram_info -->
<g id="node1" class="node"><title>_diagram_info</title>
<text text-anchor="start" x="8" y="-632.6" font-family="Times,serif" font-size="13.00">Models diagram</text>
<text text-anchor="start" x="8" y="-619.6" font-family="Times,serif" font-size="13.00">Date: Apr 25 2015 &#45; 09:40</text>
<text text-anchor="start" x="8" y="-606.6" font-family="Times,serif" font-size="13.00">Migration version: 20150409004346</text>
<text text-anchor="start" x="8" y="-593.6" font-family="Times,serif" font-size="13.00">Generated by RailRoady 1.3.0</text>
<text text-anchor="start" x="8" y="-580.6" font-family="Times,serif" font-size="13.00">http://railroady.prestonlee.com</text>
</g>
<!-- Ability -->
<!-- <g id="node2" class="node"><title>Ability</title>
<polygon fill="none" stroke="black" points="225.853,-588.5 225.853,-632.5 281.522,-632.5 281.522,-588.5 225.853,-588.5"/>
<text text-anchor="middle" x="253.688" y="-617.3" font-family="Times,serif" font-size="14.00">Ability</text>
<polyline fill="none" stroke="black" points="225.853,-610.5 281.522,-610.5 "/>
<text text-anchor="middle" x="253.688" y="-595.3" font-family="Times,serif" font-size="14.00"> </text>
</g> -->
<!-- Answer -->
<g id="node3" class="node"><title>Answer</title>
<path fill="none" stroke="black" d="M409.182,-152.5C409.182,-152.5 518.193,-152.5 518.193,-152.5 524.193,-152.5 530.193,-158.5 530.193,-164.5 530.193,-164.5 530.193,-254.5 530.193,-254.5 530.193,-260.5 524.193,-266.5 518.193,-266.5 518.193,-266.5 409.182,-266.5 409.182,-266.5 403.182,-266.5 397.182,-260.5 397.182,-254.5 397.182,-254.5 397.182,-164.5 397.182,-164.5 397.182,-158.5 403.182,-152.5 409.182,-152.5"/>
<text text-anchor="middle" x="463.688" y="-251.3" font-family="Times,serif" font-size="14.00">Answer</text>
<polyline fill="none" stroke="black" points="397.182,-244.5 530.193,-244.5 "/>
<text text-anchor="start" x="405.182" y="-229.3" font-family="Times,serif" font-size="14.00">id :integer</text>
<text text-anchor="start" x="405.182" y="-215.3" font-family="Times,serif" font-size="14.00">user_key_id :integer</text>
<text text-anchor="start" x="405.182" y="-201.3" font-family="Times,serif" font-size="14.00">question_id :integer</text>
<text text-anchor="start" x="405.182" y="-187.3" font-family="Times,serif" font-size="14.00">message :text</text>
<text text-anchor="start" x="405.182" y="-173.3" font-family="Times,serif" font-size="14.00">created_at :datetime</text>
<text text-anchor="start" x="405.182" y="-159.3" font-family="Times,serif" font-size="14.00">updated_at :datetime</text>
</g>
<!-- Approval -->
<g id="node4" class="node"><title>Approval</title>
<path fill="none" stroke="black" d="M711.182,-159.5C711.182,-159.5 820.193,-159.5 820.193,-159.5 826.193,-159.5 832.193,-165.5 832.193,-171.5 832.193,-171.5 832.193,-247.5 832.193,-247.5 832.193,-253.5 826.193,-259.5 820.193,-259.5 820.193,-259.5 711.182,-259.5 711.182,-259.5 705.182,-259.5 699.182,-253.5 699.182,-247.5 699.182,-247.5 699.182,-171.5 699.182,-171.5 699.182,-165.5 705.182,-159.5 711.182,-159.5"/>
<text text-anchor="middle" x="765.688" y="-244.3" font-family="Times,serif" font-size="14.00">Approval</text>
<polyline fill="none" stroke="black" points="699.182,-237.5 832.193,-237.5 "/>
<text text-anchor="start" x="707.182" y="-222.3" font-family="Times,serif" font-size="14.00">id :integer</text>
<text text-anchor="start" x="707.182" y="-208.3" font-family="Times,serif" font-size="14.00">user_id :integer</text>
<text text-anchor="start" x="707.182" y="-194.3" font-family="Times,serif" font-size="14.00">user_key_id :integer</text>
<text text-anchor="start" x="707.182" y="-180.3" font-family="Times,serif" font-size="14.00">created_at :datetime</text>
<text text-anchor="start" x="707.182" y="-166.3" font-family="Times,serif" font-size="14.00">updated_at :datetime</text>
</g>
<!-- Column -->
<g id="node5" class="node"><title>Column</title>
<path fill="none" stroke="black" d="M311.393,-560.5C311.393,-560.5 421.983,-560.5 421.983,-560.5 427.983,-560.5 433.983,-566.5 433.983,-572.5 433.983,-572.5 433.983,-648.5 433.983,-648.5 433.983,-654.5 427.983,-660.5 421.983,-660.5 421.983,-660.5 311.393,-660.5 311.393,-660.5 305.393,-660.5 299.393,-654.5 299.393,-648.5 299.393,-648.5 299.393,-572.5 299.393,-572.5 299.393,-566.5 305.393,-560.5 311.393,-560.5"/>
<text text-anchor="middle" x="366.688" y="-645.3" font-family="Times,serif" font-size="14.00">Column</text>
<polyline fill="none" stroke="black" points="299.393,-638.5 433.983,-638.5 "/>
<text text-anchor="start" x="307.393" y="-623.3" font-family="Times,serif" font-size="14.00">id :integer</text>
<text text-anchor="start" x="307.393" y="-609.3" font-family="Times,serif" font-size="14.00">resource :string</text>
<text text-anchor="start" x="307.393" y="-595.3" font-family="Times,serif" font-size="14.00">column_name :string</text>
<text text-anchor="start" x="307.393" y="-581.3" font-family="Times,serif" font-size="14.00">created_at :datetime</text>
<text text-anchor="start" x="307.393" y="-567.3" font-family="Times,serif" font-size="14.00">updated_at :datetime</text>
</g>
<!-- UserKey -->
<g id="node14" class="node"><title>UserKey</title>
<path fill="none" stroke="black" d="M591.569,-331.5C591.569,-331.5 727.807,-331.5 727.807,-331.5 733.807,-331.5 739.807,-337.5 739.807,-343.5 739.807,-343.5 739.807,-503.5 739.807,-503.5 739.807,-509.5 733.807,-515.5 727.807,-515.5 727.807,-515.5 591.569,-515.5 591.569,-515.5 585.569,-515.5 579.569,-509.5 579.569,-503.5 579.569,-503.5 579.569,-343.5 579.569,-343.5 579.569,-337.5 585.569,-331.5 591.569,-331.5"/>
<text text-anchor="middle" x="659.688" y="-500.3" font-family="Times,serif" font-size="14.00">UserKey</text>
<polyline fill="none" stroke="black" points="579.569,-493.5 739.807,-493.5 "/>
<text text-anchor="start" x="587.569" y="-478.3" font-family="Times,serif" font-size="14.00">id :integer</text>
<text text-anchor="start" x="587.569" y="-464.3" font-family="Times,serif" font-size="14.00">user_id :integer</text>
<text text-anchor="start" x="587.569" y="-450.3" font-family="Times,serif" font-size="14.00">status :string</text>
<text text-anchor="start" x="587.569" y="-436.3" font-family="Times,serif" font-size="14.00">time_submitted :datetime</text>
<text text-anchor="start" x="587.569" y="-422.3" font-family="Times,serif" font-size="14.00">time_filtered :datetime</text>
<text text-anchor="start" x="587.569" y="-408.3" font-family="Times,serif" font-size="14.00">time_confirmed :datetime</text>
<text text-anchor="start" x="587.569" y="-394.3" font-family="Times,serif" font-size="14.00">time_expired :date</text>
<text text-anchor="start" x="587.569" y="-380.3" font-family="Times,serif" font-size="14.00">active :boolean</text>
<text text-anchor="start" x="587.569" y="-366.3" font-family="Times,serif" font-size="14.00">name :string</text>
<text text-anchor="start" x="587.569" y="-352.3" font-family="Times,serif" font-size="14.00">created_at :datetime</text>
<text text-anchor="start" x="587.569" y="-338.3" font-family="Times,serif" font-size="14.00">updated_at :datetime</text>
</g>
<!-- Column&#45;&gt;UserKey -->
<g id="edge2" class="edge"><title>Column&#45;&gt;UserKey</title>
<path fill="none" stroke="#f5e149" d="M443.039,-560.408C446.976,-557.899 450.877,-555.418 454.688,-553 492.614,-528.939 534.622,-502.56 570.686,-479.997"/>
<polygon fill="#f5e149" stroke="#f5e149" points="442.812,-560.553 431.962,-562.139 438.597,-563.242 434.383,-565.932 434.383,-565.932 434.383,-565.932 438.597,-563.242 436.803,-569.726 442.812,-560.553 442.812,-560.553"/>
<polygon fill="#f5e149" stroke="#f5e149" points="570.761,-479.949 581.626,-478.462 575,-477.298 579.24,-474.647 579.24,-474.647 579.24,-474.647 575,-477.298 576.853,-470.831 570.761,-479.949 570.761,-479.949"/>
</g>
<!-- UserKeyColumn -->
<g id="node15" class="node"><title>UserKeyColumn</title>
<path fill="none" stroke="black" d="M258.182,-159.5C258.182,-159.5 367.193,-159.5 367.193,-159.5 373.193,-159.5 379.193,-165.5 379.193,-171.5 379.193,-171.5 379.193,-247.5 379.193,-247.5 379.193,-253.5 373.193,-259.5 367.193,-259.5 367.193,-259.5 258.182,-259.5 258.182,-259.5 252.182,-259.5 246.182,-253.5 246.182,-247.5 246.182,-247.5 246.182,-171.5 246.182,-171.5 246.182,-165.5 252.182,-159.5 258.182,-159.5"/>
<text text-anchor="middle" x="312.688" y="-244.3" font-family="Times,serif" font-size="14.00">UserKeyColumn</text>
<polyline fill="none" stroke="black" points="246.182,-237.5 379.193,-237.5 "/>
<text text-anchor="start" x="254.182" y="-222.3" font-family="Times,serif" font-size="14.00">id :integer</text>
<text text-anchor="start" x="254.182" y="-208.3" font-family="Times,serif" font-size="14.00">user_key_id :integer</text>
<text text-anchor="start" x="254.182" y="-194.3" font-family="Times,serif" font-size="14.00">column_id :integer</text>
<text text-anchor="start" x="254.182" y="-180.3" font-family="Times,serif" font-size="14.00">created_at :datetime</text>
<text text-anchor="start" x="254.182" y="-166.3" font-family="Times,serif" font-size="14.00">updated_at :datetime</text>
</g>
<!-- Column&#45;&gt;UserKeyColumn -->
<g id="edge1" class="edge"><title>Column&#45;&gt;UserKeyColumn</title>
<path fill="none" stroke="#5d883d" d="M358.882,-551.827C348.718,-476.724 331.038,-346.089 320.749,-270.066"/>
<ellipse fill="none" stroke="#5d883d" cx="359.476" cy="-556.211" rx="4.00001" ry="4.00001"/>
<polygon fill="#5d883d" stroke="#5d883d" points="320.689,-269.622 323.807,-259.109 320.019,-264.668 319.348,-259.713 319.348,-259.713 319.348,-259.713 320.019,-264.668 314.889,-260.316 320.689,-269.622 320.689,-269.622"/>
</g>
<!-- Comment -->
<g id="node6" class="node"><title>Comment</title>
<path fill="none" stroke="black" d="M862.182,-145.5C862.182,-145.5 971.193,-145.5 971.193,-145.5 977.193,-145.5 983.193,-151.5 983.193,-157.5 983.193,-157.5 983.193,-261.5 983.193,-261.5 983.193,-267.5 977.193,-273.5 971.193,-273.5 971.193,-273.5 862.182,-273.5 862.182,-273.5 856.182,-273.5 850.182,-267.5 850.182,-261.5 850.182,-261.5 850.182,-157.5 850.182,-157.5 850.182,-151.5 856.182,-145.5 862.182,-145.5"/>
<text text-anchor="middle" x="916.688" y="-258.3" font-family="Times,serif" font-size="14.00">Comment</text>
<polyline fill="none" stroke="black" points="850.182,-251.5 983.193,-251.5 "/>
<text text-anchor="start" x="858.182" y="-236.3" font-family="Times,serif" font-size="14.00">id :integer</text>
<text text-anchor="start" x="858.182" y="-222.3" font-family="Times,serif" font-size="14.00">message :text</text>
<text text-anchor="start" x="858.182" y="-208.3" font-family="Times,serif" font-size="14.00">public :boolean</text>
<text text-anchor="start" x="858.182" y="-194.3" font-family="Times,serif" font-size="14.00">user_id :integer</text>
<text text-anchor="start" x="858.182" y="-180.3" font-family="Times,serif" font-size="14.00">user_key_id :integer</text>
<text text-anchor="start" x="858.182" y="-166.3" font-family="Times,serif" font-size="14.00">created_at :datetime</text>
<text text-anchor="start" x="858.182" y="-152.3" font-family="Times,serif" font-size="14.00">updated_at :datetime</text>
</g>
<!-- EndpointRequest -->
<!-- <g id="node7" class="node"><title>EndpointRequest</title>
<polygon fill="none" stroke="black" points="801.47,-588.5 801.47,-632.5 913.905,-632.5 913.905,-588.5 801.47,-588.5"/>
<text text-anchor="middle" x="857.688" y="-617.3" font-family="Times,serif" font-size="14.00">EndpointRequest</text>
<polyline fill="none" stroke="black" points="801.47,-610.5 913.905,-610.5 "/>
<text text-anchor="middle" x="857.688" y="-595.3" font-family="Times,serif" font-size="14.00"> </text>
</g> -->
<!-- EndpointResponse -->
<!-- <g id="node8" class="node"><title>EndpointResponse</title>
<polygon fill="none" stroke="black" points="932.191,-588.5 932.191,-632.5 1053.18,-632.5 1053.18,-588.5 932.191,-588.5"/>
<text text-anchor="middle" x="992.688" y="-617.3" font-family="Times,serif" font-size="14.00">EndpointResponse</text>
<polyline fill="none" stroke="black" points="932.191,-610.5 1053.18,-610.5 "/>
<text text-anchor="middle" x="992.688" y="-595.3" font-family="Times,serif" font-size="14.00"> </text>
</g> -->
<!-- Filter -->
<g id="node9" class="node"><title>Filter</title>
<path fill="none" stroke="black" d="M1245.18,-366.5C1245.18,-366.5 1354.19,-366.5 1354.19,-366.5 1360.19,-366.5 1366.19,-372.5 1366.19,-378.5 1366.19,-378.5 1366.19,-468.5 1366.19,-468.5 1366.19,-474.5 1360.19,-480.5 1354.19,-480.5 1354.19,-480.5 1245.18,-480.5 1245.18,-480.5 1239.18,-480.5 1233.18,-474.5 1233.18,-468.5 1233.18,-468.5 1233.18,-378.5 1233.18,-378.5 1233.18,-372.5 1239.18,-366.5 1245.18,-366.5"/>
<text text-anchor="middle" x="1299.69" y="-465.3" font-family="Times,serif" font-size="14.00">Filter</text>
<polyline fill="none" stroke="black" points="1233.18,-458.5 1366.19,-458.5 "/>
<text text-anchor="start" x="1241.18" y="-443.3" font-family="Times,serif" font-size="14.00">id :integer</text>
<text text-anchor="start" x="1241.18" y="-429.3" font-family="Times,serif" font-size="14.00">resource :string</text>
<text text-anchor="start" x="1241.18" y="-415.3" font-family="Times,serif" font-size="14.00">filter_name :string</text>
<text text-anchor="start" x="1241.18" y="-401.3" font-family="Times,serif" font-size="14.00">filter_value :string</text>
<text text-anchor="start" x="1241.18" y="-387.3" font-family="Times,serif" font-size="14.00">created_at :datetime</text>
<text text-anchor="start" x="1241.18" y="-373.3" font-family="Times,serif" font-size="14.00">updated_at :datetime</text>
</g>
<!-- Whitelist -->
<g id="node17" class="node"><title>Whitelist</title>
<path fill="none" stroke="black" d="M1180.18,-166.5C1180.18,-166.5 1289.19,-166.5 1289.19,-166.5 1295.19,-166.5 1301.19,-172.5 1301.19,-178.5 1301.19,-178.5 1301.19,-240.5 1301.19,-240.5 1301.19,-246.5 1295.19,-252.5 1289.19,-252.5 1289.19,-252.5 1180.18,-252.5 1180.18,-252.5 1174.18,-252.5 1168.18,-246.5 1168.18,-240.5 1168.18,-240.5 1168.18,-178.5 1168.18,-178.5 1168.18,-172.5 1174.18,-166.5 1180.18,-166.5"/>
<text text-anchor="middle" x="1234.69" y="-237.3" font-family="Times,serif" font-size="14.00">Whitelist</text>
<polyline fill="none" stroke="black" points="1168.18,-230.5 1301.19,-230.5 "/>
<text text-anchor="start" x="1176.18" y="-215.3" font-family="Times,serif" font-size="14.00">id :integer</text>
<text text-anchor="start" x="1176.18" y="-201.3" font-family="Times,serif" font-size="14.00">user_key_id :integer</text>
<text text-anchor="start" x="1176.18" y="-187.3" font-family="Times,serif" font-size="14.00">created_at :datetime</text>
<text text-anchor="start" x="1176.18" y="-173.3" font-family="Times,serif" font-size="14.00">updated_at :datetime</text>
</g>
<!-- Filter&#45;&gt;Whitelist -->
<g id="edge4" class="edge"><title>Filter&#45;&gt;Whitelist</title>
<path fill="none" stroke="#85b866" d="M1279.42,-356.404C1270.12,-326.066 1259.25,-290.621 1250.56,-262.264"/>
<polygon fill="#85b866" stroke="#85b866" points="1279.51,-356.684 1278.14,-367.564 1280.97,-361.464 1282.44,-366.244 1282.44,-366.244 1282.44,-366.244 1280.97,-361.464 1286.74,-364.925 1279.51,-356.684 1279.51,-356.684"/>
<polygon fill="#85b866" stroke="#85b866" points="1250.51,-262.11 1251.88,-251.231 1249.05,-257.33 1247.58,-252.55 1247.58,-252.55 1247.58,-252.55 1249.05,-257.33 1243.28,-253.869 1250.51,-262.11 1250.51,-262.11"/>
</g>
<!-- WhitelistFilter -->
<g id="node18" class="node"><title>WhitelistFilter</title>
<path fill="none" stroke="black" d="M1245.18,-0.5C1245.18,-0.5 1354.19,-0.5 1354.19,-0.5 1360.19,-0.5 1366.19,-6.5 1366.19,-12.5 1366.19,-12.5 1366.19,-88.5 1366.19,-88.5 1366.19,-94.5 1360.19,-100.5 1354.19,-100.5 1354.19,-100.5 1245.18,-100.5 1245.18,-100.5 1239.18,-100.5 1233.18,-94.5 1233.18,-88.5 1233.18,-88.5 1233.18,-12.5 1233.18,-12.5 1233.18,-6.5 1239.18,-0.5 1245.18,-0.5"/>
<text text-anchor="middle" x="1299.69" y="-85.3" font-family="Times,serif" font-size="14.00">WhitelistFilter</text>
<polyline fill="none" stroke="black" points="1233.18,-78.5 1366.19,-78.5 "/>
<text text-anchor="start" x="1241.18" y="-63.3" font-family="Times,serif" font-size="14.00">id :integer</text>
<text text-anchor="start" x="1241.18" y="-49.3" font-family="Times,serif" font-size="14.00">whitelist_id :integer</text>
<text text-anchor="start" x="1241.18" y="-35.3" font-family="Times,serif" font-size="14.00">filter_id :integer</text>
<text text-anchor="start" x="1241.18" y="-21.3" font-family="Times,serif" font-size="14.00">created_at :datetime</text>
<text text-anchor="start" x="1241.18" y="-7.3" font-family="Times,serif" font-size="14.00">updated_at :datetime</text>
</g>
<!-- Filter&#45;&gt;WhitelistFilter -->
<g id="edge3" class="edge"><title>Filter&#45;&gt;WhitelistFilter</title>
<path fill="none" stroke="#e62354" d="M1305.92,-358.022C1310.61,-300.329 1315.47,-213.464 1310.69,-138 1310.13,-129.218 1309.26,-119.965 1308.25,-110.908"/>
<ellipse fill="none" stroke="#e62354" cx="1305.56" cy="-362.332" rx="4" ry="4"/>
<polygon fill="#e62354" stroke="#e62354" points="1308.23,-110.73 1311.52,-100.271 1307.64,-105.765 1307.05,-100.8 1307.05,-100.8 1307.05,-100.8 1307.64,-105.765 1302.58,-101.328 1308.23,-110.73 1308.23,-110.73"/>
</g>
<!-- Organization -->
<g id="node10" class="node"><title>Organization</title>
<path fill="none" stroke="black" d="M662.182,-553.5C662.182,-553.5 771.193,-553.5 771.193,-553.5 777.193,-553.5 783.193,-559.5 783.193,-565.5 783.193,-565.5 783.193,-655.5 783.193,-655.5 783.193,-661.5 777.193,-667.5 771.193,-667.5 771.193,-667.5 662.182,-667.5 662.182,-667.5 656.182,-667.5 650.182,-661.5 650.182,-655.5 650.182,-655.5 650.182,-565.5 650.182,-565.5 650.182,-559.5 656.182,-553.5 662.182,-553.5"/>
<text text-anchor="middle" x="716.688" y="-652.3" font-family="Times,serif" font-size="14.00">Organization</text>
<polyline fill="none" stroke="black" points="650.182,-645.5 783.193,-645.5 "/>
<text text-anchor="start" x="658.182" y="-630.3" font-family="Times,serif" font-size="14.00">id :integer</text>
<text text-anchor="start" x="658.182" y="-616.3" font-family="Times,serif" font-size="14.00">name :string</text>
<text text-anchor="start" x="658.182" y="-602.3" font-family="Times,serif" font-size="14.00">external_id :integer</text>
<text text-anchor="start" x="658.182" y="-588.3" font-family="Times,serif" font-size="14.00">active :boolean</text>
<text text-anchor="start" x="658.182" y="-574.3" font-family="Times,serif" font-size="14.00">created_at :datetime</text>
<text text-anchor="start" x="658.182" y="-560.3" font-family="Times,serif" font-size="14.00">updated_at :datetime</text>
</g>
<!-- Organization&#45;&gt;UserKey -->
<g id="edge6" class="edge"><title>Organization&#45;&gt;UserKey</title>
<path fill="none" stroke="#3890b5" d="M696.423,-543.727C694.572,-537.72 692.67,-531.548 690.753,-525.325"/>
<polygon fill="#3890b5" stroke="#3890b5" points="696.487,-543.935 695.131,-554.817 697.959,-548.714 699.431,-553.492 699.431,-553.492 699.431,-553.492 697.959,-548.714 703.732,-552.167 696.487,-543.935 696.487,-543.935"/>
<polygon fill="#3890b5" stroke="#3890b5" points="690.677,-525.078 692.033,-514.196 689.204,-520.3 687.732,-515.521 687.732,-515.521 687.732,-515.521 689.204,-520.3 683.432,-516.846 690.677,-525.078 690.677,-525.078"/>
</g>
<!-- UserKeyOrganization -->
<g id="node16" class="node"><title>UserKeyOrganization</title>
<path fill="none" stroke="black" d="M1012.75,-159.5C1012.75,-159.5 1138.63,-159.5 1138.63,-159.5 1144.63,-159.5 1150.63,-165.5 1150.63,-171.5 1150.63,-171.5 1150.63,-247.5 1150.63,-247.5 1150.63,-253.5 1144.63,-259.5 1138.63,-259.5 1138.63,-259.5 1012.75,-259.5 1012.75,-259.5 1006.75,-259.5 1000.75,-253.5 1000.75,-247.5 1000.75,-247.5 1000.75,-171.5 1000.75,-171.5 1000.75,-165.5 1006.75,-159.5 1012.75,-159.5"/>
<text text-anchor="middle" x="1075.69" y="-244.3" font-family="Times,serif" font-size="14.00">UserKeyOrganization</text>
<polyline fill="none" stroke="black" points="1000.75,-237.5 1150.63,-237.5 "/>
<text text-anchor="start" x="1008.75" y="-222.3" font-family="Times,serif" font-size="14.00">id :integer</text>
<text text-anchor="start" x="1008.75" y="-208.3" font-family="Times,serif" font-size="14.00">user_key_id :integer</text>
<text text-anchor="start" x="1008.75" y="-194.3" font-family="Times,serif" font-size="14.00">organization_id :integer</text>
<text text-anchor="start" x="1008.75" y="-180.3" font-family="Times,serif" font-size="14.00">created_at :datetime</text>
<text text-anchor="start" x="1008.75" y="-166.3" font-family="Times,serif" font-size="14.00">updated_at :datetime</text>
</g>
<!-- Organization&#45;&gt;UserKeyOrganization -->
<g id="edge5" class="edge"><title>Organization&#45;&gt;UserKeyOrganization</title>
<path fill="none" stroke="#63cf91" d="M772.843,-547.088C841.79,-470.459 957.752,-341.576 1024.4,-267.506"/>
<ellipse fill="none" stroke="#63cf91" cx="770.038" cy="-550.206" rx="4.00002" ry="4.00002"/>
<polygon fill="#63cf91" stroke="#63cf91" points="1024.79,-267.067 1034.83,-262.643 1028.14,-263.35 1031.48,-259.633 1031.48,-259.633 1031.48,-259.633 1028.14,-263.35 1028.14,-256.623 1024.79,-267.067 1024.79,-267.067"/>
</g>
<!-- Page -->
<g id="node11" class="node"><title>Page</title>
<path fill="none" stroke="black" d="M1083.18,-553.5C1083.18,-553.5 1192.19,-553.5 1192.19,-553.5 1198.19,-553.5 1204.19,-559.5 1204.19,-565.5 1204.19,-565.5 1204.19,-655.5 1204.19,-655.5 1204.19,-661.5 1198.19,-667.5 1192.19,-667.5 1192.19,-667.5 1083.18,-667.5 1083.18,-667.5 1077.18,-667.5 1071.18,-661.5 1071.18,-655.5 1071.18,-655.5 1071.18,-565.5 1071.18,-565.5 1071.18,-559.5 1077.18,-553.5 1083.18,-553.5"/>
<text text-anchor="middle" x="1137.69" y="-652.3" font-family="Times,serif" font-size="14.00">Page</text>
<polyline fill="none" stroke="black" points="1071.18,-645.5 1204.19,-645.5 "/>
<text text-anchor="start" x="1079.18" y="-630.3" font-family="Times,serif" font-size="14.00">id :integer</text>
<text text-anchor="start" x="1079.18" y="-616.3" font-family="Times,serif" font-size="14.00">name :string</text>
<text text-anchor="start" x="1079.18" y="-602.3" font-family="Times,serif" font-size="14.00">url :string</text>
<text text-anchor="start" x="1079.18" y="-588.3" font-family="Times,serif" font-size="14.00">message :text</text>
<text text-anchor="start" x="1079.18" y="-574.3" font-family="Times,serif" font-size="14.00">created_at :datetime</text>
<text text-anchor="start" x="1079.18" y="-560.3" font-family="Times,serif" font-size="14.00">updated_at :datetime</text>
</g>
<!-- Question -->
<g id="node12" class="node"><title>Question</title>
<path fill="none" stroke="black" d="M476.182,-553.5C476.182,-553.5 585.193,-553.5 585.193,-553.5 591.193,-553.5 597.193,-559.5 597.193,-565.5 597.193,-565.5 597.193,-655.5 597.193,-655.5 597.193,-661.5 591.193,-667.5 585.193,-667.5 585.193,-667.5 476.182,-667.5 476.182,-667.5 470.182,-667.5 464.182,-661.5 464.182,-655.5 464.182,-655.5 464.182,-565.5 464.182,-565.5 464.182,-559.5 470.182,-553.5 476.182,-553.5"/>
<text text-anchor="middle" x="530.688" y="-652.3" font-family="Times,serif" font-size="14.00">Question</text>
<polyline fill="none" stroke="black" points="464.182,-645.5 597.193,-645.5 "/>
<text text-anchor="start" x="472.182" y="-630.3" font-family="Times,serif" font-size="14.00">id :integer</text>
<text text-anchor="start" x="472.182" y="-616.3" font-family="Times,serif" font-size="14.00">message :text</text>
<text text-anchor="start" x="472.182" y="-602.3" font-family="Times,serif" font-size="14.00">required :boolean</text>
<text text-anchor="start" x="472.182" y="-588.3" font-family="Times,serif" font-size="14.00">active :boolean</text>
<text text-anchor="start" x="472.182" y="-574.3" font-family="Times,serif" font-size="14.00">created_at :datetime</text>
<text text-anchor="start" x="472.182" y="-560.3" font-family="Times,serif" font-size="14.00">updated_at :datetime</text>
</g>
<!-- Question&#45;&gt;Answer -->
<g id="edge7" class="edge"><title>Question&#45;&gt;Answer</title>
<path fill="none" stroke="#9a4dea" d="M519.848,-544.947C507.465,-471.205 487.307,-351.158 474.808,-276.725"/>
<ellipse fill="none" stroke="#9a4dea" cx="520.568" cy="-549.235" rx="4.00001" ry="4.00001"/>
<polygon fill="#9a4dea" stroke="#9a4dea" points="474.753,-276.396 477.535,-265.789 473.925,-271.465 473.097,-266.534 473.097,-266.534 473.097,-266.534 473.925,-271.465 468.659,-267.279 474.753,-276.396 474.753,-276.396"/>
</g>
<!-- Question&#45;&gt;UserKey -->
<g id="edge8" class="edge"><title>Question&#45;&gt;UserKey</title>
<path fill="none" stroke="#4bf5a5" d="M575.534,-545.185C580.344,-538.287 585.316,-531.158 590.326,-523.972"/>
<polygon fill="#4bf5a5" stroke="#4bf5a5" points="575.462,-545.289 566.051,-550.918 572.602,-549.39 569.742,-553.492 569.742,-553.492 569.742,-553.492 572.602,-549.39 573.433,-556.066 575.462,-545.289 575.462,-545.289"/>
<polygon fill="#4bf5a5" stroke="#4bf5a5" points="590.499,-523.724 599.91,-518.095 593.359,-519.623 596.219,-515.521 596.219,-515.521 596.219,-515.521 593.359,-519.623 592.528,-512.947 590.499,-523.724 590.499,-523.724"/>
</g>
<!-- User -->
<g id="node13" class="node"><title>User</title>
<path fill="none" stroke="black" d="M560.182,-138.5C560.182,-138.5 669.193,-138.5 669.193,-138.5 675.193,-138.5 681.193,-144.5 681.193,-150.5 681.193,-150.5 681.193,-268.5 681.193,-268.5 681.193,-274.5 675.193,-280.5 669.193,-280.5 669.193,-280.5 560.182,-280.5 560.182,-280.5 554.182,-280.5 548.182,-274.5 548.182,-268.5 548.182,-268.5 548.182,-150.5 548.182,-150.5 548.182,-144.5 554.182,-138.5 560.182,-138.5"/>
<text text-anchor="middle" x="614.688" y="-265.3" font-family="Times,serif" font-size="14.00">User</text>
<polyline fill="none" stroke="black" points="548.182,-258.5 681.193,-258.5 "/>
<text text-anchor="start" x="556.182" y="-243.3" font-family="Times,serif" font-size="14.00">id :integer</text>
<text text-anchor="start" x="556.182" y="-229.3" font-family="Times,serif" font-size="14.00">andrew_id :string</text>
<text text-anchor="start" x="556.182" y="-215.3" font-family="Times,serif" font-size="14.00">role :string</text>
<text text-anchor="start" x="556.182" y="-201.3" font-family="Times,serif" font-size="14.00">active :boolean</text>
<text text-anchor="start" x="556.182" y="-187.3" font-family="Times,serif" font-size="14.00">created_at :datetime</text>
<text text-anchor="start" x="556.182" y="-173.3" font-family="Times,serif" font-size="14.00">updated_at :datetime</text>
<text text-anchor="start" x="556.182" y="-159.3" font-family="Times,serif" font-size="14.00">first_name :string</text>
<text text-anchor="start" x="556.182" y="-145.3" font-family="Times,serif" font-size="14.00">last_name :string</text>
</g>
<!-- User&#45;&gt;UserKey -->
<g id="edge9" class="edge"><title>User&#45;&gt;UserKey</title>
<path fill="none" stroke="#b0c622" d="M631.306,-288.79C633.561,-299.413 635.9,-310.435 638.225,-321.387"/>
<ellipse fill="none" stroke="#b0c622" cx="630.43" cy="-284.665" rx="4.00001" ry="4.00001"/>
<polygon fill="#b0c622" stroke="#b0c622" points="638.266,-321.581 635.941,-332.297 639.304,-326.472 640.343,-331.363 640.343,-331.363 640.343,-331.363 639.304,-326.472 644.744,-330.428 638.266,-321.581 638.266,-321.581"/>
</g>
<!-- UserKey&#45;&gt;Answer -->
<g id="edge15" class="edge"><title>UserKey&#45;&gt;Answer</title>
<path fill="none" stroke="#85bc85" d="M573.522,-352.887C559.621,-340.196 545.826,-326.639 533.688,-313 523.346,-301.38 513.271,-288.163 504.134,-275.174"/>
<ellipse fill="none" stroke="#85bc85" cx="576.513" cy="-355.589" rx="4.00002" ry="4.00002"/>
<polygon fill="#85bc85" stroke="#85bc85" points="503.956,-274.917 501.974,-264.132 501.114,-270.803 498.272,-266.69 498.272,-266.69 498.272,-266.69 501.114,-270.803 494.569,-269.248 503.956,-274.917 503.956,-274.917"/>
</g>
<!-- UserKey&#45;&gt;Approval -->
<g id="edge14" class="edge"><title>UserKey&#45;&gt;Approval</title>
<path fill="none" stroke="#5d8641" d="M728.985,-324.231C730.988,-320.485 732.897,-316.735 734.688,-313 741.219,-299.38 746.727,-284.08 751.203,-269.539"/>
<ellipse fill="none" stroke="#5d8641" cx="726.956" cy="-327.917" rx="4.00002" ry="4.00002"/>
<polygon fill="#5d8641" stroke="#5d8641" points="751.3,-269.212 758.453,-260.9 752.719,-264.418 754.138,-259.623 754.138,-259.623 754.138,-259.623 752.719,-264.418 749.823,-258.346 751.3,-269.212 751.3,-269.212"/>
</g>
<!-- UserKey&#45;&gt;Comment -->
<g id="edge13" class="edge"><title>UserKey&#45;&gt;Comment</title>
<path fill="none" stroke="#a569ba" d="M746.287,-357.815C776.924,-334.243 811.307,-306.99 841.688,-281 841.857,-280.855 842.027,-280.709 842.197,-280.564"/>
<ellipse fill="none" stroke="#a569ba" cx="742.983" cy="-360.352" rx="4.00002" ry="4.00002"/>
<polygon fill="#a569ba" stroke="#a569ba" points="842.368,-280.415 852.867,-277.248 846.141,-277.134 849.914,-273.853 849.914,-273.853 849.914,-273.853 846.141,-277.134 846.961,-270.457 842.368,-280.415 842.368,-280.415"/>
</g>
<!-- UserKey&#45;&gt;User -->
<g id="edge16" class="edge"><title>UserKey&#45;&gt;User</title>
<path fill="none" stroke="#f3ec31" d="M648.172,-321.408C646.823,-313.796 645.332,-306.257 643.688,-299 643.052,-296.191 642.363,-293.345 641.634,-290.48"/>
<polygon fill="#f3ec31" stroke="#f3ec31" points="648.201,-321.58 645.429,-332.19 649.034,-326.511 649.866,-331.441 649.866,-331.441 649.866,-331.441 649.034,-326.511 654.303,-330.692 648.201,-321.58 648.201,-321.58"/>
<polygon fill="#f3ec31" stroke="#f3ec31" points="641.599,-290.351 643.354,-279.527 640.304,-285.522 639.008,-280.693 639.008,-280.693 639.008,-280.693 640.304,-285.522 634.662,-281.859 641.599,-290.351 641.599,-290.351"/>
<text text-anchor="middle" x="688.064" y="-301.8" font-family="Times,serif" font-size="14.00">approval_users</text>
</g>
<!-- UserKey&#45;&gt;User -->
<g id="edge17" class="edge"><title>UserKey&#45;&gt;User</title>
<path fill="none" stroke="#eff73d" d="M572.363,-357.84C559.943,-344.482 548.976,-329.419 541.819,-313 536.395,-300.56 537.901,-288.118 543.292,-276.409"/>
<polygon fill="#eff73d" stroke="#eff73d" points="572.43,-357.909 576.169,-368.218 575.914,-361.496 579.397,-365.083 579.397,-365.083 579.397,-365.083 575.914,-361.496 582.625,-361.948 572.43,-357.909 572.43,-357.909"/>
<polygon fill="#eff73d" stroke="#eff73d" points="543.309,-276.376 552.065,-269.774 545.715,-271.993 548.12,-267.609 548.12,-267.609 548.12,-267.609 545.715,-271.993 544.175,-265.445 543.309,-276.376 543.309,-276.376"/>
<text text-anchor="middle" x="585.622" y="-301.8" font-family="Times,serif" font-size="14.00">comment_users</text>
</g>
<!-- UserKey&#45;&gt;UserKeyColumn -->
<g id="edge12" class="edge"><title>UserKey&#45;&gt;UserKeyColumn</title>
<path fill="none" stroke="#b9e1ee" d="M571.97,-384.419C516.873,-358.706 445.542,-322.049 387.688,-281 381.334,-276.492 374.97,-271.475 368.782,-266.253"/>
<ellipse fill="none" stroke="#b9e1ee" cx="575.662" cy="-386.133" rx="4.00002" ry="4.00002"/>
<polygon fill="#b9e1ee" stroke="#b9e1ee" points="368.609,-266.103 364.001,-256.152 364.831,-262.827 361.053,-259.552 361.053,-259.552 361.053,-259.552 364.831,-262.827 358.105,-262.952 368.609,-266.103 368.609,-266.103"/>
</g>
<!-- UserKey&#45;&gt;UserKeyOrganization -->
<g id="edge10" class="edge"><title>UserKey&#45;&gt;UserKeyOrganization</title>
<path fill="none" stroke="#f2f36f" d="M747.902,-393.316C817.151,-368.482 914.582,-329.207 992.688,-281 999.973,-276.504 1007.28,-271.392 1014.37,-266.024"/>
<ellipse fill="none" stroke="#f2f36f" cx="743.792" cy="-394.78" rx="4.00001" ry="4.00001"/>
<polygon fill="#f2f36f" stroke="#f2f36f" points="1014.69,-265.773 1025.34,-263.175 1018.63,-262.699 1022.58,-259.625 1022.58,-259.625 1022.58,-259.625 1018.63,-262.699 1019.81,-256.076 1014.69,-265.773 1014.69,-265.773"/>
</g>
<!-- UserKey&#45;&gt;Whitelist -->
<g id="edge11" class="edge"><title>UserKey&#45;&gt;Whitelist</title>
<path fill="none" stroke="#d1c350" d="M747.983,-410.56C851.915,-393.652 1027.13,-356.045 1159.69,-281 1170.01,-275.154 1180.03,-267.597 1189.2,-259.61"/>
<ellipse fill="none" stroke="#d1c350" cx="743.957" cy="-411.206" rx="4.00001" ry="4.00001"/>
<polygon fill="#d1c350" stroke="#d1c350" points="1189.28,-259.538 1199.72,-256.164 1192.99,-256.183 1196.7,-252.828 1196.7,-252.828 1196.7,-252.828 1192.99,-256.183 1193.68,-249.491 1189.28,-259.538 1189.28,-259.538"/>
</g>
<!-- Whitelist&#45;&gt;WhitelistFilter -->
<g id="edge18" class="edge"><title>Whitelist&#45;&gt;WhitelistFilter</title>
<path fill="none" stroke="#c41324" d="M1255.33,-158.651C1261.74,-143.16 1268.87,-125.945 1275.5,-109.925"/>
<ellipse fill="none" stroke="#c41324" cx="1253.64" cy="-162.731" rx="4.00001" ry="4.00001"/>
<polygon fill="#c41324" stroke="#c41324" points="1275.51,-109.892 1283.5,-102.374 1277.43,-105.272 1279.34,-100.653 1279.34,-100.653 1279.34,-100.653 1277.43,-105.272 1275.18,-98.9312 1275.51,-109.892 1275.51,-109.892"/>
</g>
</g>
</svg>
